<svg width="26" height="26" viewBox="0 0 26 26" fill="none" xmlns="http://www.w3.org/2000/svg">
<path d="M22.1863 14.25C21.9113 14.25 21.6238 14.1625 21.3488 14.1C20.7923 13.9756 20.2452 13.8127 19.7113 13.6125C19.1314 13.4015 18.494 13.4125 17.9217 13.6433C17.3494 13.874 16.8827 14.3083 16.6113 14.8625L16.3363 15.4375C15.1223 14.749 14.0008 13.9089 12.9988 12.9375C12.0274 11.9355 11.1873 10.814 10.4988 9.6L11.0738 9.3375C11.628 9.06614 12.0623 8.59941 12.293 8.02711C12.5238 7.45482 12.5348 6.81739 12.3238 6.2375C12.1253 5.69879 11.9624 5.1476 11.8363 4.5875C11.7738 4.3125 11.7238 4.025 11.6863 3.75C11.5345 2.86952 11.0733 2.07218 10.3858 1.50155C9.69832 0.930921 8.82967 0.624511 7.9363 0.6375H4.1738C3.64536 0.636808 3.12274 0.74781 2.6402 0.96323C2.15766 1.17865 1.72609 1.49362 1.3738 1.8875C1.0142 2.29207 0.746443 2.76969 0.588928 3.28754C0.431413 3.8054 0.387873 4.35122 0.461299 4.8875C1.14078 10.0902 3.51781 14.9233 7.2238 18.6375C10.938 22.3435 15.7711 24.7205 20.9738 25.4C21.1361 25.4124 21.299 25.4124 21.4613 25.4C22.3831 25.4014 23.273 25.0632 23.9613 24.45C24.3552 24.0977 24.6702 23.6661 24.8856 23.1836C25.101 22.7011 25.212 22.1784 25.2113 21.65V17.9C25.2046 17.0363 24.8999 16.2014 24.3487 15.5364C23.7976 14.8713 23.0337 14.417 22.1863 14.25ZM22.7988 21.75C22.7984 21.9244 22.7615 22.0968 22.6904 22.2562C22.6194 22.4155 22.5158 22.5581 22.3863 22.675C22.2493 22.7998 22.0863 22.8926 21.909 22.9467C21.7317 23.0007 21.5446 23.0147 21.3613 22.9875C16.6966 22.3783 12.3616 20.2525 9.0238 16.9375C5.68314 13.5968 3.53884 9.24671 2.9238 4.5625C2.89664 4.37917 2.91059 4.19209 2.96464 4.01481C3.01869 3.83754 3.11148 3.6745 3.2363 3.5375C3.35458 3.40644 3.49927 3.30192 3.66086 3.23082C3.82245 3.15972 3.99727 3.12366 4.1738 3.125H7.9238C8.21275 3.11794 8.49522 3.21123 8.72313 3.389C8.95104 3.56677 9.1103 3.81802 9.1738 4.1C9.1738 4.4375 9.2863 4.7875 9.3613 5.125C9.50577 5.77983 9.69795 6.42321 9.9363 7.05L8.1863 7.875C7.88551 8.01308 7.65175 8.26482 7.5363 8.575C7.41128 8.87933 7.41128 9.22067 7.5363 9.525C9.3353 13.3784 12.4329 16.476 16.2863 18.275C16.5906 18.4 16.932 18.4 17.2363 18.275C17.5465 18.1595 17.7982 17.9258 17.9363 17.625L18.7238 15.875C19.3687 16.1102 20.0285 16.3022 20.6988 16.45C21.0238 16.525 21.3738 16.5875 21.7113 16.6375C21.9933 16.701 22.2445 16.8603 22.4223 17.0882C22.6001 17.3161 22.6934 17.5985 22.6863 17.8875L22.7988 21.75ZM15.4238 0.5C15.1363 0.5 14.8363 0.5 14.5488 0.5C14.2173 0.528179 13.9105 0.6869 13.696 0.941247C13.4815 1.19559 13.3769 1.52473 13.4051 1.85625C13.4332 2.18777 13.5919 2.49452 13.8463 2.70901C14.1006 2.92351 14.4298 3.02818 14.7613 3H15.4238C17.4129 3 19.3206 3.79018 20.7271 5.1967C22.1336 6.60322 22.9238 8.51088 22.9238 10.5C22.9238 10.725 22.9238 10.9375 22.9238 11.1625C22.8961 11.4923 23.0003 11.8196 23.2135 12.0726C23.4267 12.3257 23.7316 12.4839 24.0613 12.5125H24.1613C24.4742 12.5138 24.7762 12.3976 25.0077 12.187C25.2391 11.9764 25.3831 11.6867 25.4113 11.375C25.4113 11.0875 25.4113 10.7875 25.4113 10.5C25.4113 7.85 24.3594 5.30835 22.4868 3.43335C20.6141 1.55834 18.0738 0.503313 15.4238 0.5ZM17.9238 10.5C17.9238 10.8315 18.0555 11.1495 18.2899 11.3839C18.5243 11.6183 18.8423 11.75 19.1738 11.75C19.5053 11.75 19.8233 11.6183 20.0577 11.3839C20.2921 11.1495 20.4238 10.8315 20.4238 10.5C20.4238 9.17392 19.897 7.90215 18.9593 6.96447C18.0217 6.02678 16.7499 5.5 15.4238 5.5C15.0923 5.5 14.7743 5.6317 14.5399 5.86612C14.3055 6.10054 14.1738 6.41848 14.1738 6.75C14.1738 7.08152 14.3055 7.39946 14.5399 7.63388C14.7743 7.8683 15.0923 8 15.4238 8C16.0868 8 16.7227 8.26339 17.1916 8.73223C17.6604 9.20107 17.9238 9.83696 17.9238 10.5Z" fill="url(#paint0_linear_27_475)"/>
<defs>
<linearGradient id="paint0_linear_27_475" x1="-5.41914" y1="-5.00322" x2="31.2814" y2="-2.23592" gradientUnits="userSpaceOnUse">
<stop stop-color="#B90075"/>
<stop offset="1" stop-color="#F01519"/>
</linearGradient>
</defs>
</svg>
