<?xml version="1.0" encoding="utf-8"?>
<!-- Generator: Adobe Illustrator 27.5.0, SVG Export Plug-In . SVG Version: 6.00 Build 0)  -->
<svg version="1.1" id="Ñëîé_1" xmlns="http://www.w3.org/2000/svg" xmlns:xlink="http://www.w3.org/1999/xlink" x="0px" y="0px"
	 viewBox="0 0 2800 2000" style="enable-background:new 0 0 2800 2000;" xml:space="preserve">
<rect id="_x38_" style="fill:#FFFFFF;" width="2800" height="2000"/>
<g>
	<g id="_x37_">
		<path style="fill:#DCE6FF;" d="M342.988,1589.906c-5.026-14.484-9.999-29.493-14.78-44.608l11.784-3.296
			c4.75,15.017,9.691,29.928,14.683,44.315L342.988,1589.906z M2451.012,1571.2l-12.2-1.417c2.026-15.418,3.949-30.947,5.718-46.153
			l12.221,1.258C2454.976,1540.147,2453.045,1555.729,2451.012,1571.2z M314.636,1500.366c-4.303-14.938-8.475-30.154-12.403-45.224
			l11.94-2.752c3.904,14.98,8.052,30.105,12.329,44.953L314.636,1500.366z M2461.783,1478.5l-12.238-1.088
			c1.555-15.481,2.996-31.053,4.281-46.283l12.254,0.913C2464.792,1447.331,2463.345,1462.961,2461.783,1478.5z M291,1409.651
			c-3.551-15.219-6.929-30.607-10.042-45.739l12.07-2.195c3.093,15.037,6.451,30.331,9.979,45.455L291,1409.651z M2469.609,1385.522
			l-12.269-0.73c1.041-15.47,1.954-31.075,2.712-46.379l12.28,0.538C2471.57,1354.32,2470.655,1369.988,2469.609,1385.522z
			 M272.149,1317.947c-2.734-15.406-5.265-30.939-7.522-46.172l12.175-1.596c2.243,15.131,4.757,30.561,7.472,45.865
			L272.149,1317.947z M2474.209,1292.339l-12.289-0.336c0.48-15.538,0.81-31.16,0.983-46.43l12.293,0.122
			C2475.022,1261.037,2474.691,1276.73,2474.209,1292.339z M258.457,1225.415c-1.833-15.56-3.428-31.21-4.742-46.514l12.253-0.931
			c1.304,15.191,2.887,30.725,4.707,46.172L258.457,1225.415z M2462.954,1199.141c-0.145-15.55-0.458-31.166-0.934-46.416
			l12.289-0.338c0.476,15.328,0.793,31.023,0.939,46.652L2462.954,1199.141z M250.492,1132.266
			c-0.815-15.652-1.356-31.366-1.607-46.707l12.292-0.179c0.248,15.213,0.785,30.797,1.593,46.32L250.492,1132.266z
			 M2460.044,1106.351c-0.844-15.53-1.882-31.111-3.084-46.313l12.259-0.858c1.21,15.29,2.253,30.962,3.102,46.58L2460.044,1106.351
			z M261.293,1039.043l-12.291-0.238c0.343-15.693,1.002-31.412,1.963-46.719l12.273,0.68
			C262.286,1007.928,261.632,1023.496,261.293,1039.043z M2452.695,1013.817c-1.642-15.526-3.502-31.034-5.527-46.093l12.196-1.45
			c2.039,15.16,3.91,30.771,5.564,46.399L2452.695,1013.817z M267.135,946.614l-12.232-1.155c1.67-15.634,3.706-31.26,6.051-46.445
			l12.166,1.662C270.8,915.692,268.787,931.148,267.135,946.614z M2440.286,921.808c-2.558-15.429-5.366-30.799-8.345-45.684
			l12.08-2.139c3.005,15.004,5.835,30.495,8.413,46.043L2440.286,921.808z M986.367,920.176
			c-17.082-2.533-29.438-9.846-46.553-22.474l7.77-8.959c14.994,11.034,25.824,17.653,40.093,19.937L986.367,920.176z
			 M1029.019,892.669l-10.948-5.258c5.627-10.364,10.602-24.745,14.787-42.745l12.009,2.469
			C1040.396,866.371,1035.212,881.265,1029.019,892.669z M903.734,864.544c-9.793-10.256-20.259-22.06-31.995-36.086l9.66-7.15
			c11.57,13.827,21.868,25.443,31.482,35.511L903.734,864.544z M281.332,855.062l-12.069-2.203
			c3.185-15.431,6.788-30.818,10.71-45.733l11.934,2.776C288.035,824.628,284.476,839.822,281.332,855.062z M2422.005,830.739
			c-3.64-15.27-7.568-30.407-11.672-44.993l11.886-2.958c4.144,14.727,8.107,30.01,11.781,45.423L2422.005,830.739z
			 M1053.139,800.606l-12.192-1.476c1.888-13.8,3.58-28.912,5.172-46.2l12.248,0.998
			C1056.759,771.378,1055.049,786.646,1053.139,800.606z M841.629,791.209c-9.993-12.692-20.358-26.107-29.289-37.685l9.952-6.789
			c8.914,11.556,19.257,24.944,29.217,37.594L841.629,791.209z M1741.66,790.258c-9.573,0-18.967-2.69-27.919-7.995l6.555-9.782
			c13.447,7.983,26.676,8.001,40.96,1.634l5.289,10.436C1758.099,788.338,1749.727,790.258,1741.66,790.258z M304.984,765.348
			l-11.756-3.381c4.885-15.022,10.243-29.962,15.928-44.405l11.529,4.013C315.082,735.811,309.8,750.538,304.984,765.348z
			 M1806.744,754.326l-9.032-7.843c9.321-9.494,19.313-21.205,30.547-35.803l9.959,6.779
			C1826.695,732.433,1816.4,744.492,1806.744,754.326z M1678.786,746.377c-7.956-11.542-15.84-25.135-24.103-41.554l11.111-4.946
			c8.028,15.951,15.651,29.104,23.308,40.211L1678.786,746.377z M2396.75,741.257c-4.952-14.98-10.236-29.726-15.706-43.829
			l11.549-3.962c5.537,14.277,10.885,29.201,15.896,44.358L2396.75,741.257z M783.207,715.832
			c-11.247-14.456-20.621-26.324-29.499-37.348l9.801-6.98c8.919,11.076,18.331,22.992,29.619,37.501L783.207,715.832z
			 M1062.065,707.239l-12.268-0.747c0.932-13.545,1.88-28.769,2.898-46.543l12.276,0.622
			C1063.95,678.387,1063,693.651,1062.065,707.239z M339.112,678.779l-11.247-4.668c6.749-14.374,13.94-28.489,21.582-42.292
			l10.901,5.345C352.828,650.744,345.753,664.633,339.112,678.779z M1866.382,678.776l-10.272-6.352
			c8.736-12.49,17.76-25.725,26.894-39.094l10.342,6.25C1884.189,652.983,1875.156,666.229,1866.382,678.776z M1634.895,661.678
			c-5.568-13.135-11.323-27.466-17.591-43.811l11.563-3.922c6.223,16.223,11.93,30.437,17.447,43.452L1634.895,661.678z
			 M2362.959,654.467c-6.609-14.479-13.601-28.543-20.78-41.802l10.956-5.246c7.3,13.483,14.406,27.778,21.121,42.487
			L2362.959,654.467z M723.355,641.849c-11.155-13.022-21.538-24.612-31.743-35.432l9.197-7.672
			c10.335,10.958,20.841,22.685,32.12,35.85L723.355,641.849z M1067.529,613.935l-12.278-0.582
			c0.828-15.446,1.651-30.899,2.529-46.624l12.277,0.606C1069.179,583.051,1068.356,598.497,1067.529,613.935z M1920.298,600.532
			l-10.256-6.375c10.271-14.616,19.458-27.259,28.086-38.652l10.013,6.707C1939.597,573.494,1930.489,586.029,1920.298,600.532z
			 M384.728,597.269l-10.362-6.222c9.66-14.228,19.621-27.079,29.605-38.194l9.391,7.46
			C403.73,571.038,394.096,583.472,384.728,597.269z M1600.889,573.748c-5.638-15.537-11.169-31.083-15.836-44.241l11.662-3.658
			c4.661,13.14,10.183,28.661,15.809,44.165L1600.889,573.748z M657.812,572.939c-12.565-11.505-24.919-21.668-36.72-30.208
			l7.497-9.163c12.177,8.812,24.894,19.271,37.799,31.086L657.812,572.939z M2318.311,572.445
			c-8.809-13.518-18.045-26.304-27.452-38.001l9.804-6.974c9.648,11.997,19.113,25.096,28.129,38.934L2318.311,572.445z
			 M447.844,528.859l-7.456-9.192c14.681-10.532,29.96-18.127,45.413-22.574l3.597,11.056
			C475.343,512.193,461.362,519.161,447.844,528.859z M1977.791,525.323l-9.55-7.279c11.529-13.378,22.453-24.89,33.398-35.193
			l8.696,8.171C1999.695,501.039,1989.05,512.259,1977.791,525.323z M1072.811,520.777l-12.271-0.688
			c1.064-16.805,2.121-32.066,3.231-46.655l12.262,0.825C1074.926,488.802,1073.872,504.019,1072.811,520.777z M580.447,518.357
			c-15.34-7.179-30.429-11.761-44.846-13.619l1.669-11.455c15.745,2.03,32.115,6.982,48.655,14.723L580.447,518.357z
			 M2259.235,499.668c-11.835-11.403-24.09-21.469-36.421-29.917l7.238-9.345c12.887,8.827,25.666,19.32,37.981,31.186
			L2259.235,499.668z M1569.372,485.267c-6.115-17.202-11.156-31.227-15.86-44.14l11.628-3.748
			c4.717,12.941,9.766,26.992,15.891,44.222L1569.372,485.267z M2047.127,461.51l-7.046-9.473
			c15.119-9.947,30.389-17.314,45.389-21.896l3.796,10.996C2075.427,445.365,2061.25,452.22,2047.127,461.51z M2181.264,447.347
			c-15.226-6.04-30.637-9.777-45.807-11.11l1.143-11.511c16.423,1.443,33.057,5.47,49.442,11.969L2181.264,447.347z
			 M1079.965,427.844l-12.245-1.023c1.532-16.221,3.199-31.887,4.954-46.563l12.217,1.293
			C1083.146,396.137,1081.489,411.712,1079.965,427.844z M1537.155,397.155c-5.94-15.593-11.538-29.847-17.114-43.575l11.484-4.125
			c5.607,13.804,11.233,28.131,17.202,43.801L1537.155,397.155z M1091.149,335.451l-12.167-1.653
			c2.486-16.187,5.22-31.753,8.124-46.267l12.081,2.137C1096.315,304.021,1093.61,319.424,1091.149,335.451z M1501.778,310.413
			c-6.606-14.943-13.263-29.24-19.792-42.493l11.155-4.859c6.595,13.391,13.32,27.83,19.988,42.914L1501.778,310.413z
			 M1109.626,244.426l-11.927-2.802c4.288-16.144,9.015-31.351,14.05-45.198l11.632,3.74
			C1118.458,213.706,1113.83,228.596,1109.626,244.426z M1460.154,226.428c-8.085-14.321-16.345-27.765-24.548-39.959l10.388-6.182
			c8.369,12.44,16.786,26.14,25.019,40.718L1460.154,226.428z M1141.843,157.808l-11.024-5.117
			c8.072-15.382,17.024-28.982,26.606-40.424l9.657,7.154C1158.029,130.232,1149.537,143.147,1141.843,157.808z M1407.43,148.972
			c-10.742-12.664-21.829-23.883-32.953-33.343l8.247-8.575c11.615,9.879,23.161,21.557,34.317,34.708L1407.43,148.972z
			 M1201.38,89.456l-6.628-9.737c14.563-8.765,30.608-14.465,47.689-16.94l1.871,11.426
			C1228.936,76.434,1214.491,81.564,1201.38,89.456z M1335.689,89.449c-14.32-7.26-29.238-12.224-44.337-14.753l2.155-11.383
			c16.388,2.745,32.543,8.114,48.016,15.958L1335.689,89.449z"/>
		<path style="fill:#D4E8FF;" d="M577.255,1652.449c0,0-299.409-691.504-83.944-845.485
			C637.328,704.042,789.98,930.927,972.18,810.9c162.209-106.858,110.642-431.964,369.343-476.9
			c290.864-50.523,354.907,555.844,593.606,472.963c289.645-100.569,577.766,103.588,328.777,846.805L577.255,1652.449z"/>
		<path style="fill:#EEF7FF;" d="M2528.921,1375.444c-102.016-16.511-85.369,132.658-230.785,132.658
			c-132.953,0-175.488-568.063-272.223-405.678c-495.921,832.482-207.948-354.028-602.346-369.106
			c-178.335-6.818-297.169,200.817-340.991,568.444c-63.522,332.347-210.838-253.487-362.443-199.017
			c-96.352,34.618-85.318,405.358-218.271,405.358c-145.416,0-128.769-149.169-230.784-132.658
			c-109.836,17.777-142.643,281.803-142.643,281.803h2543.127C2671.564,1657.247,2638.757,1393.221,2528.921,1375.444z"/>
		<path style="fill:#DCE6FF;" d="M2438.58,1536.914c-93.852-7.05-78.537,56.647-212.316,56.647
			c-122.314,0-118.953-142.754-200.803-173.093c-150.733-55.872-275,226.899-333.439,84.983
			c-110.991-376.566-434.703-565.412-584.043,0c-58.439,141.917-195.097-111.313-333.439-84.983
			c-85.154,16.207-78.49,173.093-200.804,173.093c-133.779,0-118.464-63.697-212.316-56.647
			c-101.047,7.591-131.228,120.333-131.228,120.333h2339.616C2569.808,1657.247,2539.627,1544.505,2438.58,1536.914z"/>
		<path style="fill:#CFDDF9;" d="M130.328,1657.247c0,0-17.842,64.968,56.074,81.234c101.103,22.248,694.564,80.704,550.392,125.124
			c-81.386,25.075,41.547,59.124,437.954,71.662c396.408,12.538,1076.613-36.588,847.87-109.275
			c-228.743-72.687,703.217-17.553,646.448-168.745H130.328z"/>
	</g>
	<g id="_x36_">
		<path style="fill:#163356;" d="M1468.964,1735.969c0,6.462-8.261,13.672-21.651,19.309c-13.665,5.75-32.678,9.863-53.702,9.863
			c-41.609,0-75.346-16.113-75.346-29.172c0-1.079,20.981-97.378,20.981-97.378h108.737
			C1447.983,1638.59,1468.964,1734.889,1468.964,1735.969z"/>
		<path style="fill:#1D3F70;" d="M1447.8,1752.054c0,1.058-0.162,2.138-0.487,3.224c-13.665,5.75-32.678,9.863-53.702,9.863
			c-41.609,0-75.346-16.113-75.346-29.172c0-1.079,20.981-97.378,20.981-97.378h87.572
			C1426.819,1638.59,1447.8,1750.791,1447.8,1752.054z"/>
		<path style="fill:#8A9EDD;" d="M1542.349,1573.615c0,82.147-66.591,148.737-148.738,148.737
			c-35.056,0-67.275-12.127-92.694-32.417c-34.153-27.246-56.037-69.229-56.037-116.32c0-82.147,66.591-148.738,148.73-148.738
			c25.927,0,50.308,6.639,71.536,18.307C1511.16,1468.47,1542.349,1517.395,1542.349,1573.615z"/>
		<path style="fill:#FFFFFF;" d="M1521.184,1559.506c0,82.147-66.591,148.737-148.738,148.737c-20.6,0-40.22-4.191-58.054-11.767
			c-4.621-1.954-9.115-4.141-13.475-6.54c-34.153-27.246-56.037-69.229-56.037-116.32c0-82.147,66.591-148.738,148.73-148.738
			c25.927,0,50.308,6.639,71.536,18.307c0.212,0.169,0.423,0.339,0.635,0.515
			C1499.568,1470.953,1521.184,1512.711,1521.184,1559.506z"/>
		<path style="fill:#B0C8FF;" d="M1521.184,1559.506c0,82.147-66.591,148.737-148.738,148.737c-20.6,0-40.22-4.191-58.054-11.767
			c-33.786-27.253-55.402-69.011-55.402-115.806c0-82.147,66.591-148.737,148.73-148.737c20.6,0,40.22,4.19,58.062,11.767
			C1499.568,1470.953,1521.184,1512.711,1521.184,1559.506z"/>
		<path style="fill:#E9F4FF;" d="M1475.655,1517.052l1.669,8.217c1.504,7.404,6.772,13.482,13.888,16.022l0,0l0,0
			c-7.115,2.54-12.383,8.618-13.888,16.022l-1.669,8.217l-1.669-8.217c-1.504-7.404-6.772-13.482-13.888-16.022l0,0l0,0
			c7.116-2.54,12.383-8.618,13.888-16.022L1475.655,1517.052z"/>
		<path style="fill:#E9F4FF;" d="M1447.8,1457.797L1447.8,1457.797c2.851,14.035,13.82,25.004,27.855,27.855l0,0l0,0
			c-14.035,2.851-25.004,13.82-27.855,27.855l0,0l0,0c-2.851-14.035-13.82-25.004-27.855-27.855l0,0l0,0
			C1433.98,1482.801,1444.948,1471.832,1447.8,1457.797L1447.8,1457.797z"/>
	</g>
	<g id="_x35_">
		<path style="fill:#FFFFFF;" d="M2200.406,989.698l3.298,16.232c2.971,14.626,13.377,26.631,27.433,31.649l0,0l0,0
			c-14.056,5.018-24.462,17.023-27.433,31.649l-3.298,16.232l-3.298-16.232c-2.971-14.626-13.377-26.631-27.433-31.649l0,0l0,0
			c14.056-5.018,24.462-17.024,27.433-31.649L2200.406,989.698z"/>
		<path style="fill:#FFFFFF;" d="M2145.383,872.649L2145.383,872.649c5.632,27.724,27.3,49.391,55.023,55.023l0,0l0,0
			c-27.724,5.632-49.391,27.3-55.023,55.023l0,0l0,0c-5.632-27.724-27.3-49.391-55.023-55.023l0,0l0,0
			C2118.083,922.04,2139.751,900.372,2145.383,872.649L2145.383,872.649z"/>
		<path style="fill:#FFFFFF;" d="M546.266,979.055l-3.298,16.232c-2.971,14.626-13.377,26.631-27.433,31.649l0,0l0,0
			c14.056,5.018,24.462,17.023,27.433,31.649l3.298,16.232l3.298-16.232c2.971-14.626,13.377-26.631,27.433-31.649l0,0l0,0
			c-14.056-5.018-24.462-17.023-27.433-31.649L546.266,979.055z"/>
		<path style="fill:#FFFFFF;" d="M601.29,862.005L601.29,862.005c-5.632,27.724-27.3,49.391-55.023,55.023h0h0
			c27.724,5.632,49.391,27.299,55.023,55.023l0,0l0,0c5.632-27.724,27.299-49.391,55.023-55.023l0,0l0,0
			C628.589,911.396,606.922,889.729,601.29,862.005L601.29,862.005z"/>
		<path style="fill:#C0DAF9;" d="M1888.806,309.95l3.298,16.232c2.971,14.626,13.377,26.631,27.433,31.649l0,0l0,0
			c-14.056,5.018-24.462,17.024-27.433,31.649l-3.298,16.232l-3.298-16.232c-2.971-14.626-13.377-26.631-27.433-31.649l0,0l0,0
			c14.056-5.018,24.462-17.023,27.433-31.649L1888.806,309.95z"/>
		<path style="fill:#C0DAF9;" d="M1833.783,192.9L1833.783,192.9c5.632,27.724,27.299,49.391,55.023,55.023l0,0l0,0
			c-27.724,5.632-49.391,27.299-55.023,55.023l0,0l0,0c-5.632-27.724-27.3-49.391-55.024-55.023l0,0l0,0
			C1806.483,242.291,1828.15,220.624,1833.783,192.9L1833.783,192.9z"/>
		<path style="fill:#C0DAF9;" d="M788.373,414.694l-3.298,16.232c-2.971,14.626-13.377,26.631-27.433,31.649l0,0l0,0
			c14.056,5.018,24.462,17.023,27.433,31.649l3.298,16.232l3.298-16.232c2.971-14.626,13.377-26.631,27.433-31.649l0,0l0,0
			c-14.056-5.018-24.462-17.023-27.433-31.649L788.373,414.694z"/>
		<path style="fill:#C0DAF9;" d="M843.396,297.644L843.396,297.644c-5.632,27.724-27.3,49.391-55.023,55.023h0h0
			c27.724,5.632,49.391,27.299,55.023,55.023l0,0l0,0c5.632-27.724,27.299-49.391,55.023-55.023l0,0l0,0
			C870.696,347.035,849.029,325.368,843.396,297.644L843.396,297.644z"/>
	</g>
	<g id="_x34_">
		<path style="fill:#FCB4B4;" d="M910.703,192.908c-2.428-9.507-12.104-15.245-21.611-12.817c-5.072,1.296-9.053,4.663-11.312,8.958
			l-112.536-19.953c-0.033-0.141-0.05-0.282-0.086-0.423c-2.429-9.507-12.104-15.245-21.611-12.817
			c-8.329,2.128-13.764,9.818-13.35,18.084l-132.055,45.806c-4.172-5.62-11.463-8.473-18.664-6.633
			c-9.507,2.428-15.245,12.104-12.817,21.611c0.331,1.295,0.807,2.513,1.388,3.657L353.151,448.882
			c-3.779-2.023-8.288-2.71-12.769-1.566c-9.507,2.429-15.245,12.104-12.817,21.611c2.428,9.507,12.104,15.245,21.611,12.817
			c9.507-2.428,15.246-12.104,12.817-21.611c-0.331-1.295-0.807-2.513-1.388-3.657l214.897-210.502
			c3.779,2.023,8.288,2.71,12.768,1.566c8.213-2.098,13.6-9.606,13.353-17.739l132.256-45.876c4.203,5.439,11.376,8.168,18.46,6.359
			c5.677-1.45,9.992-5.493,12.045-10.532l111.489,19.768c0.092,0.727,0.214,1.455,0.4,2.183
			c2.429,9.507,12.104,15.245,21.611,12.817C907.393,212.09,913.131,202.415,910.703,192.908z"/>
		<path style="fill:#B0C8FF;" d="M2380.696,338.289c-8.949-4.026-19.466-0.035-23.492,8.914c-0.187,0.417-0.34,0.839-0.492,1.262
			l-125.134-5.261c-1.38-4.877-4.82-9.134-9.803-11.376c-4.139-1.862-8.607-1.99-12.62-0.725l-106.432-158.546
			c0.915-1.145,1.718-2.406,2.347-3.804c4.025-8.949,0.034-19.466-8.914-23.492c-8.949-4.025-19.466-0.035-23.492,8.914
			c-4.026,8.949-0.035,19.466,8.914,23.492c4.033,1.814,8.38,1.987,12.312,0.825l106.536,158.701
			c-0.83,1.078-1.561,2.255-2.143,3.549c-4.026,8.949-0.035,19.466,8.914,23.492c1.281,0.576,2.595,0.97,3.917,1.227l19.525,135.726
			c-3.652,1.749-6.732,4.741-8.523,8.723c-4.026,8.949-0.035,19.466,8.914,23.492c8.948,4.025,19.466,0.035,23.492-8.914
			c4.025-8.949,0.034-19.466-8.914-23.492c-1.448-0.651-2.938-1.071-4.434-1.316l-19.483-135.43c3.857-1.712,7.13-4.778,8.998-8.93
			c0.219-0.488,0.405-0.982,0.577-1.478l124.985,5.255c1.337,4.97,4.808,9.322,9.868,11.599c8.949,4.026,19.466,0.035,23.492-8.914
			C2393.635,352.832,2389.645,342.314,2380.696,338.289z"/>
		<path style="fill:#FCB4B4;" d="M2582.947,1564.377c-0.396,0-0.784,0.034-1.174,0.059l-117.026-301.101
			c3.739-3.257,6.114-8.042,6.114-13.39c0-5.385-2.405-10.2-6.189-13.458l61.935-126.534c1.125,0.223,2.286,0.345,3.477,0.345
			c9.812,0,17.767-7.955,17.767-17.767c0-9.332-7.198-16.968-16.344-17.695l-55.045-258.182c4.712-3.195,7.81-8.593,7.81-14.715
			c0-9.812-7.954-17.767-17.767-17.767c-9.812,0-17.767,7.955-17.767,17.767c0,9.719,7.807,17.604,17.491,17.753l54.902,257.51
			c-5.267,3.083-8.814,8.785-8.814,15.329c0,4.773,1.892,9.096,4.954,12.288l-62.383,127.449c-0.59-0.059-1.188-0.091-1.794-0.091
			c-9.813,0-17.767,7.955-17.767,17.767c0,3.288,0.909,6.357,2.466,8.999l-146.489,187.028c-1.948-0.734-4.049-1.154-6.253-1.154
			c-9.813,0-17.767,7.955-17.767,17.767c0,9.812,7.955,17.767,17.767,17.767c9.812,0,17.767-7.954,17.767-17.767
			c0-3.736-1.158-7.199-3.128-10.06l146.023-186.434c2.25,1.031,4.744,1.62,7.381,1.62c0.641,0,1.273-0.038,1.897-0.104
			l116.86,300.672c-4.063,3.256-6.67,8.252-6.67,13.863c0,9.812,7.955,17.767,17.767,17.767s17.767-7.954,17.767-17.767
			S2592.759,1564.377,2582.947,1564.377z"/>
		<path style="fill:#B0C8FF;" d="M443.512,1508.201c-4.035,0-7.744,1.361-10.727,3.627l-110.662-65.965
			c0.556-1.722,0.864-3.554,0.864-5.461c0-4.865-1.959-9.269-5.126-12.477l84.833-117.795c1.807,0.619,3.738,0.972,5.755,0.972
			c9.812,0,17.767-7.954,17.767-17.767c0-9.812-7.954-17.767-17.767-17.767c-9.812,0-17.767,7.955-17.767,17.767
			c0,3.926,1.289,7.542,3.445,10.482l-85.78,119.11c-1.017-0.181-2.058-0.292-3.126-0.292c-9.812,0-17.767,7.955-17.767,17.767
			c0,9.813,7.954,17.767,17.767,17.767c4.026,0,7.726-1.355,10.705-3.611l110.675,65.972c-0.551,1.715-0.855,3.54-0.855,5.437
			c0,9.812,7.954,17.767,17.767,17.767c9.812,0,17.767-7.954,17.767-17.767S453.325,1508.201,443.512,1508.201z"/>
	</g>
	<g id="_x33_">
		<g>
			<path style="fill:#8A9EDD;" d="M1112.057,656.048c-27.913,48.005-43.897,103.799-43.897,163.34H818.08
				c0-51.442,6.832-102.554,20.326-151.91c13.079-47.877,32.361-93.934,57.327-136.916L1112.057,656.048z"/>
			<path style="fill:#B0C8FF;" d="M1111.78,982.248l-216.516,125.136c-24.816-42.875-43.993-88.826-56.997-136.565
				c-13.398-49.207-20.187-100.16-20.187-151.431h250.08C1068.16,878.726,1084.037,934.35,1111.78,982.248z"/>
			<path style="fill:#8A9EDD;" d="M1226.53,1098.732l-128.371,214.611c-0.064-0.032-0.117-0.074-0.181-0.106
				c-83.665-50.133-153.73-121.252-202.597-205.64c-0.042-0.075-0.085-0.138-0.117-0.213l216.516-125.136
				C1139.512,1030.136,1179.099,1070.308,1226.53,1098.732z"/>
			<path style="fill:#B0C8FF;" d="M1393.615,1144.843v250.08c-104.203,0-206.385-28.211-295.456-81.579l128.371-214.611
				C1275.375,1128.007,1332.532,1144.843,1393.615,1144.843z"/>
			<path style="fill:#8A9EDD;" d="M1677.621,1320.026c-42.418,24.093-87.783,42.705-134.841,55.316
				c-48.505,12.993-98.68,19.581-149.165,19.581v-250.08c58.412,0,113.228-15.388,160.615-42.333L1677.621,1320.026z"/>
			<path style="fill:#B0C8FF;" d="M1891.498,1108.203c-0.042,0.064-0.074,0.138-0.117,0.202
				c-51.187,88.039-125.019,161.179-213.536,211.493c-0.075,0.043-0.149,0.085-0.224,0.128L1554.23,1102.51
				c50.144-28.499,91.976-69.948,120.943-119.794L1891.498,1108.203z"/>
			<path style="fill:#8A9EDD;" d="M1969.151,819.387c0,51.442-6.832,102.554-20.326,151.91
				c-13.079,47.877-32.372,93.945-57.327,136.906l-216.324-125.487c27.913-48.005,43.897-103.799,43.897-163.329H1969.151z"/>
			<path style="fill:#B0C8FF;" d="M1969.151,819.387h-250.08c0-59.338-15.878-114.973-43.62-162.871l216.527-125.136
				c24.816,42.897,43.982,88.837,56.986,136.576C1962.361,717.163,1969.151,768.105,1969.151,819.387z"/>
			<path style="fill:#8A9EDD;" d="M1891.977,531.38L1675.45,656.516c-27.732-47.898-67.319-88.06-114.75-116.484l128.371-214.611
				c0.074,0.043,0.149,0.085,0.224,0.128c83.644,50.133,153.688,121.241,202.565,205.63
				C1891.902,531.242,1891.934,531.316,1891.977,531.38z"/>
			<path style="fill:#B0C8FF;" d="M1689.071,325.421L1560.7,540.032c-52.541-31.379-109.784-46.111-167.085-46.111v-250.08
				C1497.798,243.841,1599.972,272.042,1689.071,325.421z"/>
			<path style="fill:#8A9EDD;" d="M1393.615,243.841v250.08c-58.412,0-113.228,15.388-160.615,42.333l-123.391-217.516
				c42.407-24.093,87.783-42.705,134.841-55.316C1292.955,250.428,1343.131,243.841,1393.615,243.841z"/>
			<path style="fill:#B0C8FF;" d="M1233,536.254c-48.808,27.739-91.037,68.434-120.943,119.794
				C885.562,524.661,895.647,530.661,895.849,530.359c51.146-88.001,125.037-161.182,213.59-211.525
				C1109.699,318.677,1103.698,308.317,1233,536.254z"/>
		</g>
		<path style="fill:#4867AA;" d="M1883.89,754.475c-0.964-0.401-11.71-4.754-28.642-7.561v-89.78
			c9.122-1.547,18.637-3.932,28.383-7.44c2.997-1.079,4.552-4.382,3.473-7.379c-1.079-2.997-4.385-4.553-7.379-3.473
			c-55.836,20.101-105.077,0.385-105.776,0.099c-2.938-1.219-6.314,0.174-7.534,3.115c-1.223,2.941,0.172,6.316,3.113,7.538
			c0.979,0.407,12.041,4.889,29.427,7.689v89.515c-9.359,1.541-19.142,3.967-29.168,7.577c-2.997,1.079-4.552,4.382-3.473,7.379
			c0.847,2.352,3.063,3.815,5.426,3.815c0.648,0,1.309-0.11,1.953-0.343c55.836-20.1,105.076-0.385,105.776-0.099
			c2.936,1.218,6.313-0.175,7.534-3.115C1888.226,759.071,1886.831,755.696,1883.89,754.475z M1810.487,745.304v-86.557
			c5.107,0.479,10.575,0.772,16.354,0.772c5.377,0,11.02-0.254,16.873-0.833v86.708
			C1833.88,744.427,1822.651,744.157,1810.487,745.304z"/>
		<path style="fill:#FFFFFF;" d="M1783.519,944.511c14.871,0,26.969-12.098,26.969-26.969c0-10.083-5.565-18.886-13.782-23.513
			c18.11-6.624,37.631-7.293,58.265-1.961c20.8,5.374,35.001,15.153,35.183,15.28c1.006,0.703,2.158,1.041,3.3,1.041
			c1.817,0,3.605-0.857,4.728-2.458c1.828-2.608,1.195-6.204-1.413-8.033c-0.633-0.443-15.768-10.936-38.495-16.889
			c-30.153-7.898-59.421-3.932-84.671,11.46c-9.976,3.961-17.051,13.702-17.051,25.072
			C1756.55,932.413,1768.647,944.511,1783.519,944.511z M1783.519,902.106c8.511,0,15.436,6.925,15.436,15.436
			c0,8.511-6.925,15.435-15.436,15.435s-15.436-6.924-15.436-15.435C1768.083,909.031,1775.008,902.106,1783.519,902.106z"/>
		<path style="fill:#FFFFFF;" d="M1872.254,916.235c-14.871,0-26.969,12.098-26.969,26.969c0,10.083,5.565,18.886,13.783,23.513
			c-18.11,6.624-37.631,7.292-58.264,1.961c-20.8-5.375-35.001-15.153-35.183-15.28c-2.607-1.822-6.201-1.19-8.027,1.417
			c-1.828,2.608-1.195,6.205,1.413,8.033c0.633,0.443,15.768,10.936,38.495,16.889c10.104,2.647,20.105,3.962,29.892,3.962
			c19.42,0,37.983-5.187,54.771-15.419c9.98-3.958,17.06-13.702,17.06-25.075C1899.224,928.333,1887.125,916.235,1872.254,916.235z
			 M1872.254,958.64c-8.511,0-15.436-6.925-15.436-15.436c0-8.511,6.925-15.435,15.436-15.435c8.512,0,15.437,6.924,15.437,15.435
			C1887.69,951.715,1880.766,958.64,1872.254,958.64z"/>
		<path style="fill:#4867AA;" d="M1207.915,1268.828h49.848c2.052,0.039,4.045-1.022,5.119-2.914
			c0.023-0.041,0.049-0.08,0.072-0.122c0.009-0.018,0.021-0.033,0.03-0.051c0.045-0.087,0.081-0.175,0.121-0.263
			c0.032-0.07,0.067-0.139,0.097-0.21c0.045-0.108,0.082-0.217,0.119-0.326c0.024-0.07,0.05-0.138,0.072-0.209
			c0.037-0.121,0.066-0.243,0.094-0.366c0.014-0.061,0.031-0.121,0.043-0.183c0.027-0.139,0.047-0.278,0.063-0.417
			c0.006-0.049,0.015-0.097,0.019-0.146c0.015-0.153,0.021-0.305,0.023-0.458c0-0.034,0.005-0.068,0.005-0.103
			c0-0.007-0.001-0.014-0.001-0.021c-0.001-0.142-0.01-0.282-0.021-0.423c-0.004-0.056-0.005-0.112-0.011-0.167
			c-0.009-0.084-0.026-0.167-0.038-0.251c-0.279-1.856-1.438-3.422-3.044-4.255c-9.52-4.994-15.434-14.765-15.434-25.509
			c0-15.872,12.913-28.785,28.785-28.785s28.785,12.913,28.785,28.785c0,10.743-5.915,20.516-15.438,25.51
			c-1.604,0.834-2.762,2.4-3.041,4.256c-0.013,0.083-0.029,0.165-0.038,0.249c-0.006,0.057-0.007,0.115-0.011,0.171
			c-0.011,0.139-0.02,0.278-0.021,0.418c0,0.007-0.001,0.014-0.001,0.022c0,0.036,0.005,0.071,0.005,0.106
			c0.003,0.151,0.008,0.302,0.023,0.453c0.005,0.051,0.014,0.101,0.02,0.151c0.017,0.137,0.036,0.274,0.063,0.411
			c0.013,0.065,0.03,0.128,0.045,0.192c0.028,0.119,0.056,0.238,0.091,0.355c0.023,0.077,0.051,0.15,0.077,0.225
			c0.036,0.103,0.071,0.207,0.113,0.309c0.033,0.08,0.072,0.157,0.108,0.235c0.038,0.081,0.07,0.163,0.112,0.242
			c0.007,0.013,0.016,0.024,0.023,0.037c0.106,0.199,0.225,0.389,0.353,0.573c0.054,0.078,0.112,0.152,0.169,0.227
			c0.083,0.107,0.169,0.211,0.259,0.312c0.07,0.079,0.138,0.159,0.212,0.233c0.138,0.139,0.283,0.272,0.435,0.396
			c0.086,0.071,0.177,0.134,0.266,0.199c0.095,0.07,0.192,0.137,0.292,0.201c0.091,0.058,0.182,0.115,0.275,0.167
			c0.131,0.074,0.266,0.14,0.402,0.203c0.105,0.049,0.211,0.095,0.319,0.137c0.153,0.06,0.308,0.115,0.467,0.162
			c0.098,0.029,0.197,0.052,0.297,0.076c0.118,0.028,0.238,0.052,0.359,0.073c0.112,0.02,0.224,0.039,0.338,0.052
			c0.104,0.011,0.21,0.015,0.315,0.021c0.111,0.006,0.22,0.022,0.332,0.022c0.033,0,0.066-0.005,0.099-0.006h49.857
			c3.185,0,5.767-2.582,5.767-5.767s-2.582-5.767-5.767-5.767h-34.217c5.46-6.966,8.573-15.654,8.573-24.859
			c0-22.231-18.086-40.318-40.318-40.318s-40.318,18.087-40.318,40.318c0,9.206,3.112,17.894,8.572,24.859h-34.217
			c-3.185,0-5.767,2.582-5.767,5.767S1204.729,1268.828,1207.915,1268.828z"/>
		<path style="fill:#4867AA;" d="M1339.84,1294.366h-131.926c-3.185,0-5.767,2.582-5.767,5.767s2.582,5.767,5.767,5.767h131.926
			c3.185,0,5.767-2.582,5.767-5.767S1343.025,1294.366,1339.84,1294.366z"/>
		<path style="fill:#4867AA;" d="M1005.976,886.503c-0.001-0.254-0.023-0.503-0.056-0.749c-0.009-0.064-0.018-0.127-0.029-0.19
			c-0.041-0.246-0.093-0.487-0.164-0.722c-0.001-0.004-0.002-0.009-0.003-0.013c-0.075-0.246-0.171-0.482-0.277-0.713
			c-0.022-0.048-0.046-0.096-0.069-0.144c-0.108-0.218-0.225-0.43-0.359-0.632c-0.006-0.009-0.011-0.018-0.017-0.027
			c-0.138-0.206-0.293-0.4-0.456-0.586c-0.041-0.046-0.082-0.092-0.124-0.137c-0.166-0.178-0.34-0.349-0.527-0.504
			c-0.005-0.004-0.009-0.009-0.014-0.013c-0.195-0.161-0.405-0.305-0.621-0.44c-0.046-0.029-0.092-0.057-0.139-0.084
			c-0.225-0.132-0.457-0.253-0.7-0.354c-0.001,0-0.002-0.001-0.003-0.001c-0.003-0.001-0.007-0.002-0.01-0.003
			c-0.234-0.097-0.478-0.174-0.727-0.239c-0.052-0.014-0.104-0.028-0.157-0.04c-0.244-0.057-0.492-0.103-0.747-0.128
			c-0.035-0.004-0.07-0.003-0.105-0.005c-0.153-0.012-0.306-0.023-0.463-0.023h-53.595c-3.185,0-5.767,2.582-5.767,5.767
			c0,3.185,2.582,5.767,5.767,5.767h39.673l-49.685,49.685l-20.659-20.658c-2.252-2.252-5.903-2.252-8.155,0
			c-2.252,2.252-2.252,5.903,0,8.155l20.658,20.658l-32.241,32.241c-2.252,2.252-2.252,5.903,0,8.155
			c1.126,1.126,2.602,1.689,4.078,1.689c1.476,0,2.952-0.563,4.078-1.689l32.241-32.241l20.855,20.855
			c1.126,1.126,2.602,1.689,4.078,1.689c1.476,0,2.952-0.563,4.078-1.689c2.252-2.252,2.252-5.903,0-8.155l-20.855-20.855
			l49.685-49.685v39.672c0,3.185,2.582,5.767,5.767,5.767c3.185,0,5.767-2.582,5.767-5.767v-53.595
			C1005.977,886.517,1005.976,886.51,1005.976,886.503z"/>
		<path style="fill:#4867AA;" d="M1130.963,540.686c-1.829,0-3.627-0.868-4.747-2.485l-12.553-18.132l-27.034,19.525
			c-1.315,0.95-2.968,1.302-4.557,0.97c-1.588-0.332-2.962-1.318-3.787-2.715l-10.387-17.612l-27.877,19.415
			c-1.302,0.906-2.92,1.237-4.472,0.913c-1.553-0.323-2.904-1.273-3.735-2.623l-10.936-17.772l-27.973,19.482
			c-2.614,1.82-6.208,1.177-8.028-1.436c-1.82-2.614-1.177-6.208,1.436-8.028l32.981-22.969c1.302-0.906,2.919-1.239,4.472-0.913
			c1.553,0.323,2.904,1.272,3.735,2.623l10.936,17.771l27.973-19.481c1.317-0.917,2.958-1.244,4.525-0.902
			c1.568,0.342,2.922,1.322,3.738,2.705l10.332,17.519l26.674-19.264c1.256-0.908,2.824-1.27,4.352-1.009
			c1.527,0.262,2.884,1.127,3.766,2.401l15.902,22.969c1.813,2.619,1.16,6.212-1.458,8.024
			C1133.239,540.353,1132.095,540.685,1130.963,540.686z"/>
		<path style="fill:#4867AA;" d="M1130.963,479.173c-1.829,0-3.626-0.868-4.746-2.485l-12.553-18.132l-27.034,19.524
			c-1.315,0.95-2.968,1.303-4.557,0.97c-1.588-0.332-2.962-1.318-3.787-2.715l-10.387-17.612l-27.877,19.415
			c-1.302,0.907-2.918,1.238-4.472,0.913c-1.553-0.323-2.904-1.273-3.735-2.623l-10.936-17.771l-27.973,19.481
			c-2.614,1.819-6.208,1.178-8.028-1.436c-1.82-2.614-1.177-6.208,1.436-8.028l32.981-22.969c1.302-0.907,2.919-1.238,4.472-0.913
			c1.553,0.323,2.904,1.272,3.735,2.623l10.936,17.771l27.973-19.481c1.317-0.917,2.958-1.244,4.525-0.902
			c1.568,0.342,2.922,1.322,3.738,2.704l10.332,17.519l26.674-19.264c1.256-0.908,2.827-1.27,4.352-1.009
			c1.527,0.262,2.884,1.127,3.766,2.401l15.902,22.969c1.813,2.619,1.16,6.211-1.458,8.024
			C1133.239,478.84,1132.095,479.172,1130.963,479.173z"/>
		<path style="fill:#FFFFFF;" d="M1328.135,372.073c0-3.185-2.582-5.767-5.767-5.767h-26.526
			c3.513-29.691,27.702-51.207,27.963-51.436c2.396-2.092,2.646-5.73,0.556-8.13c-2.091-2.402-5.733-2.654-8.136-0.563
			c-1.226,1.067-28.546,25.263-31.975,60.129h-20.354c-3.429-34.866-30.749-59.062-31.975-60.129
			c-2.398-2.089-6.035-1.838-8.127,0.559c-2.093,2.397-1.846,6.038,0.548,8.134c0.261,0.228,24.45,21.745,27.963,51.436h-27.115
			c-3.185,0-5.767,2.581-5.767,5.767c0,3.185,2.582,5.767,5.767,5.767h27.375c-1.339,17.942-10.857,35.263-28.359,51.558
			c-2.331,2.17-2.461,5.819-0.291,8.15c1.136,1.22,2.677,1.837,4.222,1.837c1.407,0,2.817-0.512,3.928-1.546
			c19.998-18.619,30.757-38.778,32.059-60h19.9c1.302,21.222,12.061,41.381,32.059,60c1.111,1.034,2.521,1.546,3.928,1.546
			c1.545-0.001,3.086-0.618,4.222-1.837c2.17-2.331,2.04-5.98-0.291-8.15c-17.503-16.296-27.021-33.616-28.359-51.558h26.786
			C1325.553,377.839,1328.135,375.258,1328.135,372.073z"/>
		<path style="fill:#4867AA;" d="M1568.088,320.698c-3.058-4.046-8.927-8.87-19.521-8.87c-21.845,0-35.083,23.813-41.836,41.195
			c-6.753-17.381-19.99-41.195-41.836-41.195c-10.595,0-16.464,4.823-19.521,8.87c-10.627,14.062-3.906,39.23-3.105,42.054
			c0.868,3.061,4.054,4.839,7.115,3.972c3.063-0.866,4.845-4.051,3.982-7.115c-1.733-6.157-4.893-23.901,1.217-31.967
			c2.181-2.88,5.555-4.281,10.313-4.281c20.131,0,32.762,35.365,36.089,49.557v65.346c0,3.185,2.582,5.767,5.767,5.767
			s5.767-2.582,5.767-5.767v-65.533c3.382-14.323,15.964-49.37,36.05-49.37c4.758,0,8.132,1.4,10.313,4.281
			c6.109,8.066,2.95,25.81,1.219,31.961c-0.869,3.064,0.909,6.253,3.974,7.122c3.063,0.871,6.252-0.909,7.122-3.974
			C1571.994,359.928,1578.715,334.76,1568.088,320.698z"/>
		<path style="fill:#FFFFFF;" d="M1757.629,444.647c-0.414-3.157-3.303-5.378-6.469-4.967c-0.77,0.101-18.932,2.705-26.619,22.691
			c-0.636,1.653-1.261,3.393-1.898,5.172c-4.712,13.133-8.507,21.803-17.357,22.119c-8.849-0.316-12.644-8.986-17.356-22.118
			c-0.638-1.78-1.263-3.52-1.898-5.173c-7.688-19.986-25.851-22.589-26.62-22.69c-3.154-0.417-6.079,1.806-6.493,4.963
			c-0.415,3.158,1.784,6.051,4.941,6.465c0.498,0.074,12.244,1.978,17.406,15.402c0.606,1.575,1.2,3.233,1.809,4.928
			c2.615,7.29,5.797,16.135,11.516,22.286c-12.765,6.345-21.562,19.519-21.562,34.715c0,21.366,17.382,38.748,38.748,38.748
			s38.748-17.382,38.748-38.748c0-15.463-9.108-28.834-22.238-35.045c5.53-6.135,8.643-14.797,11.211-21.957
			c0.608-1.695,1.202-3.353,1.809-4.927c5.139-13.362,16.799-15.31,17.397-15.401C1755.84,450.675,1758.042,447.79,1757.629,444.647
			z M1732.991,528.44c0,15.006-12.209,27.215-27.215,27.215s-27.215-12.208-27.215-27.215c0-15.006,12.209-27.215,27.215-27.215
			S1732.991,513.434,1732.991,528.44z"/>
		<path style="fill:#4867AA;" d="M1748.6,1182.704c-2.312-2.181-5.957-2.076-8.146,0.227c-1.498,1.576-6.78,6.082-11.255,6.124
			c-1.036,0.03-2.719-0.195-4.595-2.094c-4.776-4.836,5.178-26.482,11.765-40.806c7.184-15.621,13.969-30.375,13.99-41.386
			c0.027-13.353-3.633-23.804-10.878-31.063c-7.158-7.173-17.795-10.964-30.76-10.964c-12.775,0-24.387,5.619-31.062,15.03
			c-6.4,9.022-7.59,20.656-3.352,32.757c1.919,5.479,3.573,10.635,4.985,15.332c-2.544-0.826-5.254-1.278-8.069-1.278
			c-14.438,0-26.184,11.746-26.184,26.184s11.746,26.184,26.184,26.184c14.386,0,26.097-11.664,26.18-26.031
			c0.001-0.036,0.002-0.072,0.003-0.108c0-0.015,0.001-0.03,0.001-0.045c0-3.743-0.795-7.302-2.216-10.525
			c-1.881-7.694-5.099-19.534-9.999-33.525c-3.011-8.597-2.363-16.298,1.874-22.272c4.449-6.271,12.746-10.168,21.654-10.169
			c9.976,0,17.578,2.55,22.596,7.578c5.003,5.012,7.529,12.714,7.509,22.892c-0.018,8.498-6.585,22.779-12.936,36.59
			c-10.221,22.225-19.874,43.217-9.493,53.729c3.572,3.618,7.974,5.524,12.742,5.524c0.077,0,0.155,0,0.233-0.001
			c10.171-0.133,18.559-8.77,19.481-9.754C1751.027,1188.516,1750.909,1184.885,1748.6,1182.704z M1671.225,1165.418
			c-8.078,0-14.65-6.572-14.65-14.65s6.572-14.65,14.65-14.65c5.669,0,10.586,3.243,13.021,7.966
			c0.862,3.581,1.386,6.057,1.606,7.139C1685.608,1159.089,1679.149,1165.418,1671.225,1165.418z"/>
		<path style="fill:#FFFFFF;" d="M1555.982,1299.91c-2.926-1.266-6.318,0.085-7.58,3.008c-0.034,0.078-3.673,7.818-9.324,7.521
			c-3.513-0.185-7.119-0.383-8.438-7.686c7.11-5.139,14.286-11.616,19.256-19.278c8.224-12.679,15.586-37.677,5.269-51.069
			c-3.818-4.956-11.173-9.766-25.051-7.16v-9.857c0-11.731-9.544-21.275-21.276-21.275c-6.117,0-11.624,2.61-15.509,6.757
			c-3.885-4.147-9.391-6.757-15.509-6.757c-6.118,0-11.625,2.61-15.51,6.757c-3.885-4.147-9.391-6.757-15.509-6.757
			c-3.185,0-5.767,2.582-5.767,5.767s2.582,5.767,5.767,5.767c5.372,0,9.742,4.37,9.742,9.742v80.294
			c0,3.185,2.582,5.767,5.767,5.767s5.767-2.582,5.767-5.767v-80.294c0-5.372,4.371-9.742,9.743-9.742s9.742,4.37,9.742,9.742
			v80.294c0,3.185,2.582,5.767,5.767,5.767s5.767-2.582,5.767-5.767v-80.294c0-5.372,4.37-9.742,9.742-9.742s9.743,4.37,9.743,9.742
			v17.371c0,0.014,0,0.028,0,0.041v62.882c0,0.424,0.005,0.855,0.012,1.289c-8.888,5.631-16.622,8.837-16.804,8.911
			c-2.949,1.201-4.367,4.563-3.169,7.514c0.911,2.239,3.067,3.597,5.345,3.597c0.724,0,1.458-0.137,2.17-0.426
			c0.548-0.223,6.598-2.72,14.321-7.216c2.307,6.601,7.326,12.043,18.018,12.606c0.326,0.018,0.649,0.025,0.969,0.025
			c10.461,0,17.184-9.014,19.549-14.492C1560.253,1304.566,1558.906,1301.173,1555.982,1299.91z M1530.113,1237.034
			c6.064-1.484,12.678-1.79,15.914,2.411c5.712,7.414,1.568,26.383-5.808,37.753c-2.685,4.139-6.242,7.915-10.106,11.278V1237.034z"
			/>
		<path style="fill:#FFFFFF;" d="M1130.825,1194.154l-20.198-11.003l0.138,5.559c-13.944-2.036-16.273-9.523-16.687-15.269v-80.096
			c0-11.732-9.544-21.276-21.275-21.276c-6.118,0-11.625,2.61-15.509,6.758c-3.885-4.148-9.392-6.758-15.509-6.758
			s-11.624,2.61-15.509,6.758c-3.885-4.148-9.392-6.758-15.509-6.758c-3.185,0-5.767,2.582-5.767,5.767s2.582,5.767,5.767,5.767
			c5.372,0,9.743,4.371,9.743,9.743v80.294c0,3.185,2.581,5.767,5.767,5.767c3.185,0,5.767-2.582,5.767-5.767v-80.294
			c0-5.372,4.371-9.743,9.743-9.743c5.372,0,9.742,4.371,9.742,9.743v80.294c0,3.185,2.582,5.767,5.767,5.767
			s5.767-2.582,5.767-5.767v-80.294c0-5.372,4.371-9.743,9.743-9.743c5.372,0,9.742,4.371,9.742,9.743v80.294
			c0,0.126,0.004,0.252,0.012,0.378c0.582,8.869,5.129,23.745,28.498,26.352l0.144,5.778L1130.825,1194.154z"/>
		<path style="fill:#FFFFFF;" d="M996.938,691.638c-10.888,0-20.107,7.263-23.08,17.197c-4.005-1.754-5.514-5.611-5.707-13.149
			c-0.158-6.142,0-24.874,0.001-25.112c0-18.407-14.975-33.382-33.382-33.382c-9.051,0-17.267,3.626-23.286,9.495
			c-3.075-7.971-10.797-13.65-19.839-13.65c-3.185,0-5.767,2.582-5.767,5.767c0,3.185,2.581,5.767,5.767,5.767
			c5.372,0,9.743,4.371,9.743,9.743v82.093c0,3.185,2.582,5.767,5.767,5.767c3.185,0,5.767-2.582,5.767-5.767v-65.832
			c0-12.047,9.801-21.849,21.848-21.849c12.047,0,21.849,9.801,21.849,21.799c-0.007,0.778-0.161,19.118,0.002,25.457
			c0.134,5.225,0.522,19.896,15.146,24.325c-2.742,12.809-6.354,26.55-13.104,29.587c-2.091,0.941-11.67,1.246-20.495,0.652
			c-3.185-0.213-5.927,2.188-6.142,5.366c-0.214,3.177,2.187,5.927,5.365,6.142c1.926,0.13,5.778,0.347,10.045,0.347
			c5.833,0,12.44-0.405,15.959-1.989c9.201-4.14,13.872-14.743,17.152-27.051c4.303,4.002,10.064,6.457,16.39,6.457
			c13.283,0,24.09-10.807,24.09-24.09C1021.028,702.444,1010.222,691.638,996.938,691.638z M996.938,728.284
			c-6.918,0-12.547-5.624-12.556-12.541c0-0.01,0-0.019,0-0.029c0.007-6.917,5.636-12.543,12.556-12.543
			c6.923,0,12.556,5.633,12.556,12.556C1009.495,722.651,1003.862,728.284,996.938,728.284z"/>
		<polygon style="fill:#F9B233;" points="1517.44,695.557 1491.272,793.215 1562.763,864.705 1465.105,890.872 1438.938,988.53 
			1367.448,917.039 1269.79,943.207 1295.958,845.549 1224.467,774.059 1322.125,747.892 1348.292,650.234 1419.782,721.724 		"/>
	</g>
	<g id="_x32_">
		<path style="fill:#F99370;" d="M684.998,1753.469l-1.217-0.635c0,0.852-1.054,3.811-1.905,3.811l-35.99,0.741
			c-0.852,0-1.376-1.604-1.376-2.456l-3.07-0.879c0-5.39,0.444-7.343,2.824-11.514c8.75-11.63-1.696-63.641-1.393-77.229
			c-2.158-3.715,37.899-0.8,38.459-1.678c0.9,0.001,1.609,0.769,1.538,1.665l-4.714,59.43
			C676.038,1736.011,684.697,1742.832,684.998,1753.469z"/>
		<path style="fill:#F99370;" d="M854.934,1758.648h-71.688c-6.258-0.252-6.21-6.635-5.057-11.584
			c3.947-17.84-3.03-58.805-4.323-77.152c-0.345-3.359,2.292-6.28,5.669-6.28h31.639c3.429,0,6.082,3.006,5.655,6.409l-5.754,45.879
			c-3.126,19.932,20.649,23.732,34.204,25.935C854.203,1742.502,869.128,1754.683,854.934,1758.648z"/>
		<path style="fill:#EB5648;" d="M775.46,1751.211c0.193,3.515,1.936,7.525,6.008,7.437c0,0,74.36,0,74.36,0
			c17.539-6.505-8.741-29.775-43.073-29.636C788.345,1735.712,774.633,1716.683,775.46,1751.211z"/>
		<path style="fill:#EB5648;" d="M647.142,1758.649h31.782c15.489-2.115,4.33-31.832-15.887-29.683
			C642.764,1726.398,631.665,1756.562,647.142,1758.649z"/>
		<path style="fill:#CE3932;" d="M861.031,1751.211H775.46c0.315,2.612,1.036,5.149,2.347,7.438h78.021
			C859.671,1758.654,862.396,1754.802,861.031,1751.211z"/>
		<path style="fill:#CE3932;" d="M647.142,1758.649h31.782c4.044,0.004,7.297-3.403,7.048-7.438h-45.879
			C639.848,1755.245,643.099,1758.654,647.142,1758.649z"/>
		<path style="fill:#3A72AA;" d="M840.31,1711.143c-26.346,15.518-62.112,12.837-90.301,5.611
			c-3.857-68.537-14.899-342.295-15.275-349.271c-9.65,119.515-18.102,287.334-28.1,349.981
			c-28.532,11.845-64.863,7.458-92.028-3.551c-3.286-73.856,0.279-349.508,24.396-413.338c58.654,6.576,122.641,4.232,180.686-0.334
			C852.076,1494.24,847.007,1638.986,840.31,1711.143z"/>
		<path style="fill:#C92828;" d="M761.812,949.843c0,0,17.522-9.888,30.168,12.711c12.646,22.598,3.453,24.832,21.945,49.779
			c18.492,24.946-12.972,55.317-33.052,57.236c-20.08,1.918-2.896,28.685-41.847,26.9
			C700.075,1094.682,625.738,977.367,761.812,949.843z"/>
		<path style="fill:#23659B;" d="M655.572,1302.247c-8.341,38.014-27.362,153.881-26.276,416.68
			c-2.646-0.738-4.985-1.476-6.976-2.145c-1.016-261.811,17.462-376.076,26.15-415.176c2.395-10.819,4.052-15.888,4.344-16.737
			l6.586,2.242C659.331,1287.32,657.841,1291.901,655.572,1302.247z"/>
		<path style="fill:#23659B;" d="M678.534,1303.737c-4.86,43.111-26.61,247.412-24.048,420.064
			c-2.395-0.251-4.734-0.557-6.976-0.905c-2.451-172.303,19.105-375.477,24.048-419.535c0.613-5.403,0.961-8.41,1.003-8.675
			l6.907,0.822C679.439,1295.772,679.104,1298.613,678.534,1303.737z"/>
		<path style="fill:#23659B;" d="M700.66,1300.465c-0.014,0.209-0.097,1.56-0.251,3.955c-2.27,35.703-19.104,302.721-23.533,419.799
			c-2.353,0.181-4.679,0.278-6.976,0.306c4.386-116.646,21.193-383.275,23.546-420.245c0.153-2.59,0.251-4.038,0.265-4.261
			L700.66,1300.465z"/>
		<path style="fill:#23659B;" d="M722.939,1295.313c-0.195,3.063-0.39,6.155-0.585,9.26
			c-9.121,146.236-20.191,347.544-23.895,415.761c-2.353,0.71-4.721,1.309-7.088,1.824c3.607-65.947,14.788-269.775,24.006-417.585
			c0.209-3.258,0.418-6.489,0.613-9.692L722.939,1295.313z"/>
		<path style="fill:#23659B;" d="M768.389,1720.626c-2.506-0.334-4.86-0.724-7.018-1.128
			c-4.038-110.172-20.232-363.892-23.533-415.093c-0.362-5.584-0.571-8.759-0.585-9.079l6.935-0.46
			c0.014,0.32,0.237,3.62,0.613,9.399C748.17,1356.414,764.42,1611.276,768.389,1720.626z"/>
		<path style="fill:#23659B;" d="M790.07,1722.297c-2.367-0.028-4.693-0.111-6.976-0.237
			c-2.813-113.458-21.221-368.376-24.883-418.198c-0.376-5.236-0.599-8.202-0.627-8.508l6.948-0.515
			c0.014,0.307,0.251,3.37,0.641,8.759C768.876,1354.103,787.271,1608.951,790.07,1722.297z"/>
		<path style="fill:#23659B;" d="M812.641,1720.849c-2.298,0.362-4.623,0.641-6.962,0.863
			c-0.376-120.142-20.455-361.316-25.385-418.811c-0.668-7.7-1.058-12.114-1.086-12.476l6.934-0.613
			c0.028,0.376,0.432,4.86,1.1,12.713C792.2,1360.313,812.154,1600.22,812.641,1720.849z"/>
		<path style="fill:#23659B;" d="M831.676,1715.655c-2.242,0.947-4.567,1.782-6.962,2.492
			c0.613-179.558-21.235-378.749-25.58-416.346c-0.432-3.899-0.696-6.071-0.724-6.28l6.92-0.849c0.028,0.223,0.306,2.506,0.78,6.642
			C810.497,1339.663,832.08,1536.877,831.676,1715.655z"/>
		<path style="fill:#F4D4BE;" d="M756.798,1079.332c1.023,2.431,11.292,26.683,11.95,28.253
			c19.14,24.569,58.837,75.553,77.775,99.875c-1.483-28.247-27.513-120.038-84.272-127.275c0-0.007,0-0.007,0-0.007
			C758.817,1079.448,756.798,1079.332,756.798,1079.332z"/>
		<path style="fill:#F4D4BE;" d="M636.347,1262.108c0.875,12.359-9.703,33.469,2.658,38.471c0,0,114.49,24.862,180.679-0.338
			c5.697-9.641-4.82-16.412-6.422-23.7c-17.083-77.711,22.831-89.098-16.726-141.22c-9.087-12.324-30.315-42.497-39.739-55.989
			c-0.554,0.079-31.262,2.803-31.781,2.865C693.861,1105.118,631.47,1156.39,636.347,1262.108z"/>
		<path style="fill:#C19480;" d="M807.321,1153.195c0.824,0.018,1.391-0.966,0.93-1.668c-7.863-12.765-17.198-25.619-17.291-25.747
			c-0.814-1.151-2.624,0.146-1.769,1.287C789.438,1126.5,799.035,1142.402,807.321,1153.195z"/>
		<polygon style="fill:#FCB4B4;" points="809.559,1139.285 895.003,1164.834 846.503,1278.576 761.059,1253.027 		"/>
		<polygon style="fill:#F49F9F;" points="846.521,1278.576 897.478,1253.027 945.96,1139.285 895.003,1164.834 		"/>
		<path style="fill:#F99370;" d="M774.211,1188.02c1.094,0.529,1.493,1.881,0.898,2.933c-1.627,3.131-2.984,6.431-3.84,9.844
			c6.03-2.131,11.49-6.023,11.532-6.012c5.51-5.691,10.703-11.67,15.627-17.885c1.53-2.03,4.823,0.221,3.439,2.392
			c-4.017,6.609-8.336,13.064-12.964,19.272c0.027,0.03,0.052,0.06,0.078,0.09c6.888-4.625,13.535-9.637,19.716-15.175
			c12.783-2.429-14.332,19.136-16.413,21.014c0.006,0.019,0.013,0.037,0.019,0.056c7.215-3.254,14.036-7.393,20.329-12.202
			c12.981-1.113-16.075,18.345-18.821,19.514c0.003,0.031,0.006,0.062,0.009,0.094c6.039-1.731,11.855-4.232,17.497-7.009
			c12.066,0.74-14.772,13.673-17.404,14.575c-2.615,1.719-7.453,6.898-22.124,9.557c-4.563,0.834-13.062-8.399-12.82-12.948
			c0.271-5.117,4.355-11.772,5.497-13.541C765.72,1199.342,770.1,1186.709,774.211,1188.02z"/>
		<path style="fill:#F99370;" d="M662.57,1108.218c-106.527,118.411-19.132,218.226,106.845,119.922
			c7.334-5.843,0.959-19.425-7.757-16.389c-34.847,12.137-67.96,12.296-91.034,0.855c-18.14-8.994,20.692-35.914,32.85-52.5
			C743.245,1121.77,694.439,1075.971,662.57,1108.218z"/>
		<path style="fill:#F4D4BE;" d="M636.347,1262.108c28.299,13.637,68.806,7.485,91.767-6.824c0,0-10.412-10.295-5.694-34.954
			c-61.505-9.492,21.552-69.724,2.479-140.677c-29.155,1.507-71.043,2.319-104.061,77.254
			C596.377,1217.032,613.081,1251.083,636.347,1262.108z"/>
		<path style="fill:#F99370;" d="M926.676,1189.604c-5.707,2.195-8.164-4.395-2.412-6.472
			C929.971,1180.937,932.427,1187.527,926.676,1189.604z"/>
		<path style="fill:#F99370;" d="M925.655,1195.278c-5.708,2.195-8.164-4.395-2.413-6.472
			C928.95,1186.612,931.407,1193.202,925.655,1195.278z"/>
		<path style="fill:#F99370;" d="M922.867,1201.281c-5.708,2.194-8.164-4.396-2.412-6.472
			C926.161,1192.614,928.618,1199.204,922.867,1201.281z"/>
		<path style="fill:#F99370;" d="M919.912,1206.837c-5.707,2.194-8.164-4.396-2.413-6.473
			C923.207,1198.171,925.664,1204.76,919.912,1206.837z"/>
		<polygon style="fill:#FFFFFF;" points="895.003,1164.918 884.153,1161.589 928.472,1139.285 939.775,1142.386 		"/>
		<polygon style="fill:#FFFFFF;" points="814.858,1140.869 826.187,1136.375 904.553,1160.112 895.003,1164.918 		"/>
		<path style="fill:#C19480;" d="M719.569,1259.592c5.301-2.407,8.55-4.315,8.545-4.309c0,0-10.412-10.295-5.694-34.954
			c0,0-4.922-0.663-10.295-2.756C712.125,1217.573,706.175,1245.855,719.569,1259.592z"/>
		<path style="fill:#C19480;" d="M712.43,1220.058c1.127,0.024,1.519-1.63,0.457-2.088c-16.108-7.406-18.247-11.155-6.565-37.542
			c11.08-26.496,20.686-48.583,14.862-44.371c-0.052,0.169-5.214,17.174-16.863,43.485
			C692.528,1205.997,693.835,1211.978,712.43,1220.058z"/>
		<path style="fill:#C19480;" d="M715.61,1080.039c14.054,64.278,68.23,94.483,46.642,0.139c-4.301-1.694-27.748,0.243-32.384,0.161
			c2.307-2.571-4.771,0.153-4.968-0.686C724.897,1079.656,721.386,1079.354,715.61,1080.039z"/>
		<path style="fill:#F99370;" d="M756.859,1070.048c-0.276,15.332,0.251,4.622,3.075,34.366c2.936,31.591-8.137,36.443-20.883,8.19
			c-4.965-11.084-14.151-32.954-14.151-32.954s1.468-13.154,0.876-17.71L756.859,1070.048z"/>
		<path style="fill:#1D3F70;" d="M757.924,1212.571c0,0,0.177,11.606,9.299,17.563c0,0-0.993,2.652-4.902,3.808
			c0,0-10.549-8.555-9.618-19.911C752.703,1214.031,754.388,1211.71,757.924,1212.571z"/>
		<path style="fill:#8A9EDD;" d="M757.006,1229.838l6.757-3.345c0.898-0.445,1.266-1.533,0.821-2.432l-3.345-6.757
			c-0.445-0.898-1.534-1.266-2.432-0.821l-6.757,3.345c-0.898,0.445-1.266,1.533-0.821,2.432l3.345,6.757
			C755.018,1229.915,756.107,1230.283,757.006,1229.838z"/>
		<path style="fill:#1D3F70;" d="M757.848,1227.344c1.296-0.863,5.484-1.77,4.241-4.125c-0.863-1.296-1.77-5.484-4.125-4.241
			c-1.296,0.863-5.484,1.77-4.241,4.125C754.586,1224.398,755.493,1228.586,757.848,1227.344z"/>
		
			<rect x="844.37" y="1137.728" transform="matrix(0.2942 -0.9557 0.9557 0.2942 -518.4895 1632.6205)" style="fill:#F49F9F;" width="3.646" height="59.296"/>
		
			<rect x="837.795" y="1156.035" transform="matrix(0.2872 -0.9579 0.9579 0.2872 -535.8033 1648.4053)" style="fill:#F49F9F;" width="3.645" height="56.319"/>
		<path style="fill:#C19480;" d="M756.177,1150.646c-0.071,4.874,7.585,4.874,7.513,0
			C763.761,1145.772,756.105,1145.772,756.177,1150.646z"/>
		<path style="fill:#C19480;" d="M759.934,1165.254c-0.071,4.874,7.585,4.874,7.513,0
			C767.518,1160.38,759.862,1160.38,759.934,1165.254z"/>
		<path style="fill:#E57D61;" d="M756.859,1070.048c-6.742,0.077-20.581-0.782-31.083-8.108c0.184-0.946,0.356-1.922,0.52-2.91
			c2.049-9.397,2.631-17.817,2.957-23.235c0.313-10.213-0.778-14.272,6.107-20.43c4.917-4.164,13.084-4.686,18.477-1.133
			C767.765,1023.49,759.178,1044.417,756.859,1070.048z"/>
		<path style="fill:#F99370;" d="M779.122,1057.627c-12.87,8.871-30.05,8.72-42.768,3.298c-0.721-0.309-1.455-0.618-2.138-0.96
			c-27.205-13.016-26.804-59.211-10.493-80.111c10.2-14.426,32.106-20.14,46.613-9.085c10.02,8.112,12.035,20.33,14.693,33.288
			c0.889,3.412,2.981,8.043,5.264,11.365C799.005,1028.459,795.682,1045.601,779.122,1057.627z"/>
		<path style="fill:#E57D61;" d="M747.978,993.081c-24.548,3-25.572,22.181-25.572,22.181l-7.263-11.525l26.29-31.388l21.182-5.723
			c4.723,1.546,8.744,4.409,11.888,8.282C774.503,974.907,772.526,990.081,747.978,993.081z"/>
		<path style="fill:#C92828;" d="M770.332,970.77c0.57-21.714-41.58-66.573-85.101-17.526
			c-31.734,39.209-105.139,75.128-52.793,110.254c20.834,7.951-0.043,25.193,12,38.293c12.043,13.1,32.712,6.911,28.807,31.938
			c-3.905,25.026,10.737,33.77,28.219,35.693c17.483,1.923,46.524-40.688,29.803-60.49c-16.72-19.802,2.457-29.471-2.927-52.472
			c-5.384-23.001-15.479-28.942-15.479-28.942l7.773-18.999C725.918,983.738,767.307,994.012,770.332,970.77z"/>
		<path style="fill:#F99370;" d="M702.935,1015.57c0.496,15.917,19.481,15.616,19.472-0.308
			C721.911,999.345,702.926,999.647,702.935,1015.57z"/>
		<path style="fill:#F9F8F3;" d="M773.929,1038.693l-15.665-12.574C754.016,1037.384,763.652,1046.567,773.929,1038.693z"/>
		<path style="fill:#C16256;" d="M707.293,1019.664c0.46,0.003,0.828-0.404,0.777-0.861c-1.224-8.766,2.76-11.32,7.94-8.04
			c0.844,0.555,1.699-0.79,0.836-1.318c-5.873-3.852-11.899-0.833-10.327,9.52C706.56,1019.366,706.899,1019.664,707.293,1019.664z"
			/>
		<path style="fill:#C16256;" d="M714.652,1019.987c2.082-0.054-0.824-7.903-6.568-9.489c-0.416-0.109-0.844,0.138-0.954,0.555
			c-0.11,0.417,0.138,0.844,0.555,0.954C713.653,1013.813,712.974,1019.641,714.652,1019.987z"/>
		<path style="fill:#C16256;" d="M765.38,1012.17c1.677-2.085-1.637-4.671-3.252-2.537
			C760.452,1011.719,763.765,1014.304,765.38,1012.17z"/>
		<path style="fill:#C16256;" d="M782.953,1012.627c1.677-2.085-1.637-4.671-3.252-2.537
			C778.025,1012.175,781.339,1014.76,782.953,1012.627z"/>
		<path style="fill:#C16256;" d="M774.051,1039.274c0.709,0.025,1.072-0.966,0.482-1.395c0,0-15.787-12.375-15.787-12.375
			c-0.34-0.265-0.831-0.206-1.096,0.133c-0.266,0.339-0.207,0.83,0.133,1.096C758.283,1026.915,773.438,1039.407,774.051,1039.274z"
			/>
		<path style="fill:#C16256;" d="M775.065,1029.162c3.316-0.094,7.445-1.544,3.941-5.09c-3.423-2.819-4.686-11.29-4.698-11.376
			c-3.373-3.758-0.151,9.686,3.705,12.58c2.641,2.422-3.956,2.984-6.358,1.572c-0.377-0.208-0.852-0.071-1.06,0.307
			C770.277,1029.052,773.623,1029.003,775.065,1029.162z"/>
		<path style="fill:#C19480;" d="M675.862,1271.273c-10.971,0-23.681-1.866-37.798-7.071c-0.722-0.266-1.091-1.067-0.825-1.788
			c0.267-0.722,1.071-1.091,1.788-0.825c48.182,17.765,79.304-4.327,79.612-4.553c0.621-0.453,1.492-0.315,1.946,0.303
			c0.454,0.62,0.319,1.49-0.301,1.945C720.054,1259.451,703.471,1271.273,675.862,1271.273z"/>
		<path style="fill:#C16256;" d="M757.484,1007.368c-0.273,0-0.546-0.106-0.751-0.318c-0.401-0.413-0.391-1.073,0.022-1.474
			c0.185-0.18,4.616-4.377,10.999-4.294c0.577,0.008,1.038,0.483,1.029,1.059c-0.008,0.572-0.475,1.029-1.044,1.029
			c-0.069-0.004-0.129-0.001-0.191-0.001c-5.425,0-9.301,3.67-9.34,3.707C758.006,1007.272,757.745,1007.368,757.484,1007.368z"/>
		<path style="fill:#C16256;" d="M784.628,1006.836c-0.301,0-0.6-0.129-0.806-0.379c-2.908-3.526-7.215-3.095-7.258-3.095
			c-0.557,0.08-1.088-0.35-1.151-0.925c-0.063-0.572,0.352-1.089,0.925-1.15c0.22-0.026,5.481-0.543,9.095,3.84
			c0.367,0.445,0.304,1.104-0.141,1.47C785.097,1006.758,784.862,1006.836,784.628,1006.836z"/>
	</g>
	<g id="_x31_">
		<path style="fill:#1D3F70;" d="M2032.895,1137.123c-40.899,35.371-101.914,46.57-147.198,12.116v-0.049
			c-13.475-9.86-27.087-25.721-36.549-42.308l11.115-18.023c88.278,54.451,123.223-38.475,195.012-45.712
			C2055.275,1043.147,2034.147,1135.671,2032.895,1137.123z"/>
		<path style="fill:#F99370;" d="M2114.189,1757.555l1.347-0.703c0,0.943,1.166,4.218,2.109,4.218l39.833,0.82
			c0.943,0,1.523-1.775,1.523-2.718l3.397-0.972c0-5.965-0.491-8.127-3.125-12.744c-9.685-12.871,1.876-70.435,1.542-85.474
			c2.388-4.112-41.946-0.886-42.565-1.857c-0.996,0.001-1.781,0.851-1.702,1.843l5.218,65.775
			C2124.106,1738.233,2114.523,1745.782,2114.189,1757.555z"/>
		<path style="fill:#F99370;" d="M1941.521,1763.287h79.342c6.926-0.279,6.873-7.343,5.596-12.821
			c-4.369-19.745,3.354-65.083,4.785-85.39c0.381-3.718-2.537-6.951-6.275-6.951h-35.017c-3.795,0-6.731,3.327-6.259,7.093
			l6.369,50.778c3.46,22.06-22.853,26.266-37.856,28.704C1942.33,1745.417,1925.812,1758.898,1941.521,1763.287z"/>
		<path style="fill:#3A72AA;" d="M2029.48,1755.056c-0.214,3.891-2.143,8.328-6.649,8.231c0,0-82.3,0-82.3,0
			c-19.411-7.2,9.674-32.953,47.672-32.8C2015.22,1737.902,2030.396,1716.842,2029.48,1755.056z"/>
		<path style="fill:#3A72AA;" d="M2156.087,1763.288h-35.175c-17.142-2.341-4.792-35.23,17.583-32.853
			C2160.932,1727.594,2173.217,1760.979,2156.087,1763.288z"/>
		<path style="fill:#23659B;" d="M1934.773,1755.056h94.708c-0.349,2.891-1.147,5.699-2.597,8.232h-86.352
			C1936.278,1763.294,1933.262,1759.031,1934.773,1755.056z"/>
		<path style="fill:#23659B;" d="M2156.087,1763.288h-35.175c-4.475,0.005-8.076-3.766-7.801-8.232h50.777
			C2164.16,1759.521,2160.563,1763.294,2156.087,1763.288z"/>
		<path style="fill:#1D3F70;" d="M2044.249,952.612c0,0-0.416-25.716,22.829-30.282l12.186,12.642L2044.249,952.612z"/>
		<path style="fill:#EB5648;" d="M2166.365,1718.401c0,0-37.516,9.113-56.843-0.679c-10.061-63.085-37.985-238.74-47.712-359.11
			c-0.372,7.018-20.807,290.084-24.696,359.11c-13.344,4.465-40.176,9.851-55.191-0.964c-6.745-72.663-28.403-311.897,4.222-507.283
			c0,0,89.405,9.945,159.224-11.153C2164.587,1260.3,2169.678,1644.027,2166.365,1718.401z"/>
		<path style="fill:#CE3932;" d="M1996.356,1710.726c-9.168-208.831,11.867-388.437,8.712-390.579
			C1999.552,1320.59,1978.405,1501.801,1996.356,1710.726z"/>
		<path style="fill:#CE3932;" d="M2136.845,1710.726c-3.641-214.59-35.529-417.847-40.345-418.62
			C2092.894,1294.808,2124.237,1495.724,2136.845,1710.726z"/>
		<path style="fill:#F99370;" d="M2054.623,1042.436c-1.952-17.013,0.712-41.56,3.083-51.658
			c4.277-19.918,35.864-12.21,30.615,7.369c-1.019-0.64-4.278,35.454-2.028,45.473
			C2115.935,1052.513,2026.785,1081.753,2054.623,1042.436z"/>
		<path style="fill:#E57D61;" d="M2088.624,996.505c-0.077,0.549-0.175,1.106-0.302,1.643c-0.734-0.486-2.79,19.428-2.808,33.882
			c-13.582,6.176-28.724,3.46-31.496,2.891c-0.297-18.309,1.385-34.989,4.074-45.464
			C2063.597,971.732,2091.434,978.191,2088.624,996.505z"/>
		<path style="fill:#F99370;" d="M2109.686,989.073c-4.498,13.61-11.746,28.6-24.267,36.067l-0.018-0.003
			c-5.085,3.001-10.85,4.465-16.805,4.679c-33.445,4.512-66.39-41.02-36.293-63.678c4.96-3.535,9.303-8.663,11.942-13.527
			C2071.063,900.908,2126.052,941.487,2109.686,989.073z"/>
		<path style="fill:#F9F8F3;" d="M2039.873,994.449l19.825-6.414C2059.804,999.254,2046.567,1004.665,2039.873,994.449z"/>
		<path style="fill:#103663;" d="M1996.596,1114.393l-13.769,50.518c-29.491,9.063-60.932,7.009-88.669-10.014
			c30.49,17.223,72.397,7.51,79.006-2.604C1980.124,1141.58,1995.645,1115.945,1996.596,1114.393z"/>
		<path style="fill:#1D3F70;" d="M2158.378,1282.681c-3.194,3.882-6.599,7.773-10.205,11.682c0,0-17.565,3.304-31.322-14.995
			c56.098-118.92-52.207-130.018-30.559-235.751C2158.654,1052.162,2259.317,1160.158,2158.378,1282.681z"/>
		<path style="fill:#C16256;" d="M2057.754,971.885c-0.888-2.634,3.269-3.969,4.079-1.309
			C2062.721,973.209,2058.564,974.544,2057.754,971.885z"/>
		<path style="fill:#C16256;" d="M2040.454,966.038c-0.888-2.634,3.269-3.968,4.079-1.309
			C2045.421,967.362,2041.264,968.697,2040.454,966.038z"/>
		<path style="fill:#E57D61;" d="M2109.686,989.073c-4.498,13.61-11.746,28.6-24.267,36.067l-0.018-0.003
			c-1.037,0.614-2.112,1.167-3.212,1.65c9.739-6.986,17.479-24.081,17.479-24.081l0.458-15.458
			c-11.347-15.915-3.028-30.426-3.028-30.426c-23.693,2.717-29.082-12.501-29.082-12.501c-7.316-0.228-14.273-5.055-14.273-5.055
			C2086.338,906.594,2123.815,953.268,2109.686,989.073z"/>
		<path style="fill:#C16256;" d="M2039.873,995.26c0.445-0.508,21.614-5.915,20.597-7.475c0.406-1.977-20.444,6.178-20.846,5.892
			C2038.758,993.93,2038.982,995.289,2039.873,995.26z"/>
		<path style="fill:#C16256;" d="M2045.607,985.628c1.393,0.432,2.582-1.515,0.772-1.678c-2.849,0.537-9.076-2.397-5.638-3.808
			c4.927-1.681,12.613-12.958,8.119-10.94c-0.043,0.079-4.313,7.889-8.654,9.411C2034.256,981.562,2041.49,985.636,2045.607,985.628
			z"/>
		<path style="fill:#103663;" d="M2158.378,1282.681c-3.194,3.882-6.599,7.773-10.205,11.682c0,0-17.888,2.505-31.644-15.795
			c2.022-4.91,4.256-8.099,5.976-12.977C2122.506,1265.592,2133.132,1277.487,2158.378,1282.681z"/>
		<path style="fill:#CE3932;" d="M2149.437,1296.716c3.788,1.136,7.772-3.348,2.627-4.648
			c-27.838,1.215-35.256-17.162-35.558-17.945C2104.437,1267.33,2119.266,1298.388,2149.437,1296.716z"/>
		<path style="fill:#F4D4BE;" d="M1973.145,1293.467c0,0,5.461,23.426,49.161,34.981c12.516,3.309,19.75,1.673,21.585-7.005
			c0.922-4.358,3.301-11.941,7.675-14.753c0,0,9.778,4.223,13.467,10.214c8.089,13.133,20.277,1.201,26.209-12.545
			c7.338-17.004,25.93-31.409,29.997-45.671L1973.145,1293.467z"/>
		<path style="fill:#1D3F70;" d="M2151.223,1264.51c-1.424,2.517-2.272,2.118-3.728,0.658
			c-39.256-29.319-53.312,34.743-95.614,35.891c-43.059,4.262-67.012,6.694-78.74-7.595
			c-20.476-31.737,12.091-173.607,38.434-207.962c11.539-17.862,32.012-33.781,43.031-43.05c-0.226,0.931-6.092,25.328,31.689,1.165
			c1.9,0.802,13.876,12.486,13.123,18.741C2101.336,1091.081,2169.485,1232.243,2151.223,1264.51z"/>
		<path style="fill:#1D3F70;" d="M2042.2,915.961c0,0,11.077-3.051,22.43,1.408c1.301-4.306,3.955-8.28,8.264-11.425
			c1.851,5.233,4.482,10.257,7.479,14.94c1.026-9.84,7.091-17.819,7.091-17.819c1.621,9.427,14.65,16.207,20.794,26.41l0.333-0.473
			c0,0,34.414,12.387,9.61,42.893l-0.001-0.002c-1.021,11.29-6.531,22.71-6.531,22.71c-18.237-16.658-14.308-36.677-6.021-41.883
			c-14.864,5.271-28.104-0.976-35.58-10.842C2059.016,940.047,2045.501,934.029,2042.2,915.961z"/>
		<path style="fill:#103663;" d="M2128.5,1273.531l-8.608-1.789c34.413-77.468-6.059-110.217-27.467-153.864
			C2142.066,1175.323,2149.579,1206.817,2128.5,1273.531z"/>
		<path style="fill:#F99370;" d="M2117.428,997.558c-5.696,15.296-24.917,7.892-18.877-7.273
			C2104.247,974.991,2123.467,982.395,2117.428,997.558z"/>
		<path style="fill:#C16256;" d="M2111.989,1000.041c3.513-3.678,3.511-9.855,1.91-11.572c-2.919-2.997-8.453-2.642-8.462-0.903
			c0.744,1.754,4.499-1.117,7.188,1.906C2115.524,991.752,2109.727,999.11,2111.989,1000.041z"/>
		<path style="fill:#C16256;" d="M2104.698,997.72c1.239-0.087,3.25-5.704,9.375-5.337c0.443,0.05,0.84-0.287,0.883-0.732
			C2110.963,987.609,2101.083,997.799,2104.698,997.72z"/>
		<path style="fill:#F4D4BE;" d="M2097.913,1045.691c0.204,14.413-36.77,27.136-38.865,27.155l-4.433-13.114
			c-5.69,1.404-10.7,9.37-10.7,9.37c-16.4-15.625-0.978-29.247,10.7-26.669c0,0,0,0.009-0.009,0.018
			c-0.228,0.931-2.805,22.316,31.547,0.423C2090.576,1040.828,2097.913,1045.691,2097.913,1045.691z"/>
		<path style="fill:#CE3932;" d="M2037.114,1717.722c0.03-0.054-4.846,1.796-11.581,3.083c0,0,18.85-280.911,21.658-318.4
			c2.808-37.488,14.619-43.793,14.619-43.793S2036.802,1711.656,2037.114,1717.722z"/>
		<path style="fill:#CE3932;" d="M2037.858,1704.103c-0.505,8.103-0.78,12.949-0.743,13.619
			c-13.344,4.465-40.176,9.851-55.191-0.964c0,0-0.477-4.451-1.257-12.655C1980.666,1704.103,2006.968,1716.198,2037.858,1704.103z"
			/>
		<path style="fill:#CE3932;" d="M2166.365,1718.401c0,0-37.516,9.113-56.843-0.679c0,0-0.798-4.882-2.194-13.619
			c0,0,25.568,7.406,58.633,0C2166.108,1712.619,2166.246,1717.694,2166.365,1718.401z"/>
		<path style="fill:#103663;" d="M1870.026,1093.965c-0.05,11.517-15.721,21.23-15.721,21.23c-1.753-2.654-3.506-5.458-5.157-8.312
			l11.115-18.023C1863.617,1090.711,1866.871,1092.413,1870.026,1093.965z"/>
		<path style="fill:#F99370;" d="M1843.939,1056.449c-4.303,2.767,2.754,11.284,2.218,15.919
			c-7.134-3.252-13.383-8.591-13.435-8.582c-6.116-7.542-11.814-15.401-17.158-23.521c-13.179-6.036,7.724,23.806,9.299,27.479
			c-0.036,0.033-0.069,0.068-0.105,0.102c-7.913-6.389-15.491-13.224-22.443-20.651c-14.827-3.095,15.062,24.18,17.781,27.426
			c-0.01,0.022-0.02,0.044-0.03,0.066c-8.46-4.75-16.344-10.538-23.511-17.087c-15.206-1.79,17.271,23.579,20.883,25.853
			c-0.007,0.038-0.014,0.076-0.02,0.114c-6.438-0.856-19.68-12.756-23.931-9.878c-4.03,6.528,39.458,29.948,54.697,32.89
			c5.483,1.509,13.396-12.284,12.055-17.704c-1.258-5.082-4.765-11.302-5.969-13.584
			C1852.373,1069.986,1850.25,1056.868,1843.939,1056.449z"/>
		<path style="fill:#395B96;" d="M1885.646,1149.09c0.451,0.35,0.902,0.7,1.352,1.101c-0.45-0.351-0.851-0.652-1.301-0.952v-0.049
			C1885.646,1149.139,1885.646,1149.09,1885.646,1149.09z"/>
		<path style="fill:#C16256;" d="M2069.343,971.334c0.076,0,0.152-0.009,0.229-0.028c0.496-0.127,0.796-0.627,0.672-1.124
			c-0.07-0.278-1.815-6.855-11.462-10.144c-0.488-0.166-1.014,0.094-1.18,0.58c-0.166,0.486,0.094,1.014,0.58,1.18
			c8.634,2.943,10.199,8.601,10.261,8.841C2068.552,971.055,2068.929,971.334,2069.343,971.334z"/>
		<path style="fill:#C16256;" d="M2041.4,959.316c0.213,0,0.427-0.073,0.602-0.221c3.682-3.135,9.15-0.434,9.206-0.406
			c0.459,0.231,1.016,0.049,1.248-0.409c0.232-0.457,0.05-1.016-0.407-1.248c-0.269-0.136-6.62-3.295-11.252,0.648
			c-0.391,0.333-0.438,0.92-0.105,1.31C2040.876,959.205,2041.137,959.316,2041.4,959.316z"/>
	</g>
</g>
</svg>
