<svg width="28" height="46" viewBox="0 0 28 46" fill="none" xmlns="http://www.w3.org/2000/svg">
<path fill-rule="evenodd" clip-rule="evenodd" d="M6.8822 16.9584V12.5834C6.8822 5.83966 12.4301 0.291748 19.1739 0.291748H25.4239C26.4593 0.291748 27.2989 1.13133 27.2989 2.16675V10.5001C27.2989 11.5355 26.4593 12.3751 25.4239 12.3751H19.1739C19.0593 12.3751 18.9655 12.4688 18.9655 12.5834V16.9584H25.4239C26.0009 16.9584 26.5468 17.2251 26.9009 17.6792C27.2572 18.1355 27.3822 18.7272 27.2426 19.2876L25.1593 27.6209C24.9509 28.4563 24.201 29.0417 23.3405 29.0417H18.9655V43.8334C18.9655 44.8688 18.126 45.7084 17.0905 45.7084H8.7572C7.72179 45.7084 6.8822 44.8688 6.8822 43.8334V29.0417H2.5072C1.47179 29.0417 0.632202 28.2022 0.632202 27.1667V18.8334C0.632202 17.798 1.47179 16.9584 2.5072 16.9584H6.8822ZM23.5489 4.04175H19.1739C14.4885 4.04175 10.6322 7.898 10.6322 12.5834V18.8334C10.6322 19.8688 9.79262 20.7084 8.7572 20.7084H4.3822V25.2917H8.7572C9.79262 25.2917 10.6322 26.1313 10.6322 27.1667V41.9584H15.2155V27.1667C15.2155 26.1313 16.0551 25.2917 17.0905 25.2917H21.876L23.0218 20.7084H17.0905C16.0551 20.7084 15.2155 19.8688 15.2155 18.8334V12.5834C15.2155 10.4126 17.003 8.62508 19.1739 8.62508H23.5489V4.04175Z" fill="url(#paint0_linear_67_175)"/>
<defs>
<linearGradient id="paint0_linear_67_175" x1="-5.60711" y1="-9.74217" x2="33.7102" y2="-8.00673" gradientUnits="userSpaceOnUse">
<stop stop-color="#B90075"/>
<stop offset="1" stop-color="#F01519"/>
</linearGradient>
</defs>
</svg>
