<svg width="31" height="30" viewBox="0 0 31 30" fill="none" xmlns="http://www.w3.org/2000/svg">
<g clip-path="url(#clip0_67_215)">
<path d="M28.4207 10.2422H18.366V7.2234C18.366 5.84528 17.2457 4.72028 15.8629 4.72028L3.42695 4.71559C2.04883 4.7109 0.923828 5.8359 0.923828 7.21403V15.1781C0.923828 16.5562 2.04414 17.6812 3.42695 17.6812H3.89102V19.0875C3.89102 19.3359 4.02695 19.5609 4.24727 19.6781C4.35505 19.7359 4.4765 19.7634 4.59868 19.7576C4.72085 19.7518 4.83917 19.713 4.94102 19.6453L7.88008 17.6812H13.4863V20.7047C13.4863 22.0828 14.6066 23.2031 15.9848 23.2031H23.9723L26.9113 25.1718C27.0132 25.2396 27.1315 25.2784 27.2537 25.2842C27.3758 25.2899 27.4973 25.2625 27.6051 25.2047C27.8254 25.0875 27.9613 24.8625 27.9613 24.614V23.2078H28.4254C29.8082 23.2078 30.9285 22.0875 30.9332 20.7093V12.75C30.9238 11.3672 29.7988 10.2422 28.4207 10.2422ZM14.1754 16.3359H7.66914C7.53789 16.3359 7.40664 16.3734 7.29414 16.4484L5.23164 17.8265V17.0062C5.23164 16.6359 4.93164 16.3359 4.56133 16.3359H3.42695C2.78945 16.3359 2.26914 15.8156 2.26914 15.1781V7.21403C2.26914 6.57653 2.78945 6.05622 3.42695 6.05622L15.8629 6.0609C16.5004 6.0609 17.0207 6.58122 17.0207 7.21872V15.1781C17.0207 15.8156 16.5004 16.3359 15.8629 16.3359H14.1754ZM29.5785 20.7093C29.5785 21.3468 29.0582 21.8672 28.416 21.8672H27.2816C26.9113 21.8672 26.6113 22.1672 26.6113 22.5375V23.3578L24.5488 21.975C24.4363 21.9 24.3098 21.8625 24.1738 21.8625H15.9801C15.3426 21.8625 14.8223 21.3422 14.8223 20.7047V17.6812H15.8582C17.2363 17.6812 18.3613 16.5609 18.3613 15.1781V11.5781H28.416C28.7243 11.5781 29.02 11.7006 29.238 11.9186C29.456 12.1366 29.5785 12.4323 29.5785 12.7406V20.7093Z" fill="white"/>
<path d="M11.8739 13.1062C11.844 13.0801 11.8088 13.0609 11.7707 13.05C11.7285 13.0359 11.6676 13.0125 11.5926 12.9797C11.5176 12.9469 11.4285 12.9 11.316 12.8344C11.2082 12.7687 11.0817 12.675 10.941 12.5531C11.0348 12.4594 11.1192 12.3516 11.1895 12.2297C11.2645 12.1078 11.3254 11.9719 11.3723 11.8219C11.4239 11.6719 11.4614 11.5125 11.4848 11.3391C11.5129 11.1656 11.5223 10.9781 11.5223 10.7812C11.5223 10.3969 11.4754 10.0687 11.3864 9.7875C11.2973 9.50625 11.166 9.27656 10.9879 9.09375C10.8145 8.91094 10.5989 8.775 10.3457 8.68594C10.0926 8.59688 9.79729 8.55469 9.46916 8.55469C9.1176 8.55469 8.80823 8.60625 8.54573 8.71406C8.27854 8.82188 8.05823 8.97656 7.87541 9.17344C7.69729 9.375 7.56135 9.61406 7.4676 9.9C7.37854 10.1859 7.33167 10.5094 7.33167 10.8656C7.33167 11.2594 7.37385 11.6016 7.45823 11.8875C7.5426 12.1734 7.67385 12.4078 7.8426 12.5953C8.01135 12.7781 8.22698 12.9141 8.48479 13.0031C8.7426 13.0922 9.0426 13.1344 9.38479 13.1344C9.5676 13.1344 9.73167 13.1156 9.88167 13.0828C10.0317 13.0453 10.1582 13.0078 10.2614 12.9562C10.3879 13.1016 10.5239 13.2281 10.6692 13.3359C10.8145 13.4484 10.9598 13.5422 11.1004 13.6172C11.241 13.6922 11.3723 13.7531 11.4942 13.7953C11.616 13.8375 11.7145 13.8562 11.7895 13.8562C11.8082 13.8562 11.827 13.8516 11.841 13.8422C11.8551 13.8328 11.8739 13.8187 11.8832 13.7906C11.8994 13.7532 11.9105 13.7138 11.916 13.6734C11.9254 13.6219 11.9301 13.5563 11.9301 13.4766C11.9301 13.3734 11.9254 13.2937 11.9114 13.2375C11.8973 13.1813 11.902 13.1297 11.8739 13.1062ZM10.5285 11.4328C10.491 11.6203 10.4254 11.7891 10.3364 11.9297C10.2473 12.0703 10.1254 12.1828 9.97541 12.2625C9.82541 12.3469 9.6426 12.3844 9.42229 12.3844C9.20198 12.3844 9.01916 12.3469 8.87385 12.2766C8.72854 12.2063 8.61135 12.0984 8.52698 11.9625C8.43395 11.8105 8.37183 11.6417 8.34416 11.4656C8.30459 11.2492 8.28575 11.0294 8.28791 10.8094C8.28791 10.6031 8.30666 10.4109 8.34416 10.2234C8.38166 10.0359 8.44729 9.87656 8.53635 9.73594C8.62541 9.59531 8.74729 9.4875 8.89729 9.40312C9.04729 9.31875 9.2301 9.28125 9.45042 9.28125C9.67073 9.28125 9.85354 9.31875 9.99885 9.39375C10.1442 9.46875 10.2614 9.57187 10.3504 9.70781C10.4395 9.84375 10.5004 10.0078 10.5379 10.1953C10.5754 10.3828 10.5942 10.5938 10.5942 10.8234C10.5895 11.0391 10.566 11.2406 10.5285 11.4328ZM22.852 14.5219C22.8415 14.4831 22.824 14.4466 22.8004 14.4141C22.7817 14.3859 22.7442 14.3672 22.6973 14.3531C22.6331 14.3361 22.5668 14.3282 22.5004 14.3297C22.416 14.325 22.3035 14.325 22.1582 14.325C22.0364 14.325 21.9379 14.325 21.8629 14.3297C21.7879 14.3344 21.7317 14.3438 21.6895 14.3531C21.6473 14.3672 21.6145 14.3859 21.5957 14.4094C21.577 14.4328 21.5582 14.4656 21.5442 14.5078L20.1004 18.6609C20.0723 18.7453 20.0535 18.8109 20.0442 18.8625C20.0348 18.9141 20.0442 18.9516 20.0676 18.9797C20.091 19.0078 20.1332 19.0266 20.1989 19.0312C20.2598 19.0406 20.3489 19.0406 20.4614 19.0406C20.5645 19.0406 20.6489 19.0359 20.7145 19.0312C20.7801 19.0266 20.827 19.0172 20.8645 19.0031C20.8973 18.9891 20.9254 18.9703 20.9395 18.9469C20.9556 18.9205 20.9682 18.8922 20.977 18.8625L21.2723 17.9484H23.0301L23.3442 18.8906C23.3535 18.9234 23.3676 18.9469 23.3817 18.9656C23.3957 18.9844 23.4192 18.9984 23.4567 19.0125C23.4942 19.0219 23.5457 19.0312 23.616 19.0359C23.6864 19.0406 23.7801 19.0406 23.902 19.0406C24.0192 19.0406 24.1129 19.0359 24.1785 19.0312C24.2442 19.0266 24.291 19.0078 24.3192 18.9844C24.3473 18.9609 24.3567 18.9234 24.3473 18.8719C24.3349 18.8016 24.316 18.7325 24.291 18.6656L22.852 14.5219ZM21.4879 17.2266L22.1489 15.2391H22.1535L22.8145 17.2266H21.4879Z" fill="white"/>
</g>
<defs>
<clipPath id="clip0_67_215">
<rect width="30" height="30" fill="white" transform="translate(0.923828)"/>
</clipPath>
</defs>
</svg>
