<svg width="31" height="30" viewBox="0 0 31 30" fill="none" xmlns="http://www.w3.org/2000/svg">
<g clip-path="url(#clip0_67_219)">
<path d="M22.4013 26.7039L16.8475 21.8176H6.17378C5.87601 21.8153 5.5816 21.7544 5.30737 21.6383C5.03314 21.5223 4.78446 21.3533 4.57553 21.1411C4.36659 20.9289 4.2015 20.6777 4.08967 20.4017C3.97785 20.1257 3.92148 19.8304 3.92378 19.5326V5.28262C3.92131 4.98468 3.97755 4.68917 4.08929 4.41297C4.20102 4.13676 4.36607 3.88527 4.575 3.67285C4.78394 3.46044 5.03267 3.29126 5.30699 3.17497C5.58131 3.05868 5.87584 2.99757 6.17378 2.99512H25.6738C25.9717 2.99757 26.2663 3.05868 26.5406 3.17497C26.8149 3.29126 27.0636 3.46044 27.2726 3.67285C27.4815 3.88527 27.6465 4.13676 27.7583 4.41297C27.87 4.68917 27.9263 4.98468 27.9238 5.28262V19.5326C27.9261 19.8304 27.8697 20.1257 27.7579 20.4017C27.6461 20.6777 27.481 20.9289 27.272 21.1411C27.0631 21.3533 26.8144 21.5223 26.5402 21.6383C26.266 21.7544 25.9716 21.8153 25.6738 21.8176H23.4813C23.5145 21.9399 23.5326 22.0659 23.535 22.1926V26.1714C23.535 26.7039 23.3288 26.9939 23.0175 26.9939C22.7842 26.9733 22.5658 26.8706 22.4013 26.7039ZM6.17378 19.5326H17.6863L18.32 20.0901L21.285 22.6989V22.3239L20.5638 19.5351H25.6738V5.28512H6.17378V19.5326ZM10.9888 17.2489C10.6904 17.2489 10.4043 17.1303 10.1933 16.9194C9.98231 16.7084 9.86378 16.4222 9.86378 16.1239C9.86378 15.9761 9.89288 15.8298 9.94942 15.6933C10.006 15.5569 10.0888 15.4328 10.1933 15.3284C10.2978 15.2239 10.4218 15.141 10.5583 15.0845C10.6948 15.028 10.841 14.9989 10.9888 14.9989H20.7975C20.9453 14.9989 21.0916 15.028 21.2281 15.0845C21.3645 15.141 21.4886 15.2239 21.593 15.3284C21.6975 15.4328 21.7804 15.5569 21.8369 15.6933C21.8934 15.8298 21.9225 15.9761 21.9225 16.1239C21.9225 16.4222 21.804 16.7084 21.593 16.9194C21.382 17.1303 21.0959 17.2489 20.7975 17.2489H10.9888ZM10.9888 13.4989C10.6904 13.4989 10.4043 13.3803 10.1933 13.1694C9.98231 12.9584 9.86378 12.6722 9.86378 12.3739C9.86378 12.0755 9.98231 11.7894 10.1933 11.5784C10.4043 11.3674 10.6904 11.2489 10.9888 11.2489H20.7975C21.0959 11.2489 21.382 11.3674 21.593 11.5784C21.804 11.7894 21.9225 12.0755 21.9225 12.3739C21.9225 12.6722 21.804 12.9584 21.593 13.1694C21.382 13.3803 21.0959 13.4989 20.7975 13.4989H10.9888ZM10.9888 9.74887C10.6904 9.74887 10.4043 9.63034 10.1933 9.41936C9.98231 9.20838 9.86378 8.92224 9.86378 8.62387C9.86378 8.3255 9.98231 8.03935 10.1933 7.82837C10.4043 7.61739 10.6904 7.49887 10.9888 7.49887H20.7975C21.0959 7.49887 21.382 7.61739 21.593 7.82837C21.804 8.03935 21.9225 8.3255 21.9225 8.62387C21.9225 8.92224 21.804 9.20838 21.593 9.41936C21.382 9.63034 21.0959 9.74887 20.7975 9.74887H10.9888Z" fill="url(#paint0_linear_67_219)"/>
</g>
<defs>
<linearGradient id="paint0_linear_67_219" x1="-1.69171" y1="-2.30693" x2="33.5638" y2="0.34355" gradientUnits="userSpaceOnUse">
<stop stop-color="#B90075"/>
<stop offset="1" stop-color="#F01519"/>
</linearGradient>
<clipPath id="clip0_67_219">
<rect width="30" height="30" fill="white" transform="translate(0.923828)"/>
</clipPath>
</defs>
</svg>
