<svg width="18px" height="22px" viewBox="0 0 18 22" fill="none" xmlns="http://www.w3.org/2000/svg" transform="rotate(0) scale(1, 1)">
<path fill-rule="evenodd" clip-rule="evenodd" d="M3.52524 18.3803H2.80516C2.16067 18.3803 1.54263 18.1237 1.08651 17.6685C0.631023 17.2126 0.375244 16.5942 0.375244 15.9499V2.92989C0.375244 2.28561 0.631023 1.66727 1.08651 1.21204C1.54263 0.756132 2.16067 0.500195 2.80516 0.500195H12.0447C12.6892 0.500195 13.3073 0.756132 13.7634 1.21204C14.2189 1.66727 14.4746 2.28561 14.4746 2.92989V3.64993H15.1947C15.8392 3.64993 16.4573 3.90587 16.9134 4.36178C17.3689 4.81769 17.6246 5.43535 17.6246 6.08031V19.0997C17.6246 19.7446 17.3689 20.3623 16.9134 20.8182C16.4573 21.2741 15.8392 21.5301 15.1947 21.5301H5.95516C5.31067 21.5301 4.69263 21.2741 4.23651 20.8182C3.78102 20.3623 3.52524 19.7446 3.52524 19.0997V18.3803ZM12.9752 15.9499V2.92989C12.9752 2.68351 12.877 2.44668 12.7025 2.27265C12.5279 2.09793 12.2917 2.00033 12.0447 2.00033H2.80516C2.5582 2.00033 2.32195 2.09793 2.14744 2.27265C1.97293 2.44668 1.87465 2.68351 1.87465 2.92989V15.9499C1.87465 16.1963 1.97293 16.4332 2.14744 16.6079C2.32195 16.7819 2.5582 16.8802 2.80516 16.8802H12.0447C12.2917 16.8802 12.5279 16.7819 12.7025 16.6079C12.877 16.4332 12.9752 16.1963 12.9752 15.9499ZM5.02465 18.3803V19.0997C5.02465 19.3467 5.12293 19.5829 5.29744 19.7576C5.47195 19.9323 5.7082 20.0299 5.95516 20.0299H15.1947C15.4417 20.0299 15.6779 19.9323 15.8525 19.7576C16.027 19.5829 16.1252 19.3467 16.1252 19.0997V6.08031C16.1252 5.83325 16.027 5.5971 15.8525 5.42238C15.6779 5.24766 15.4417 5.15006 15.1947 5.15006H14.4746V15.9499C14.4746 16.5942 14.2189 17.2126 13.7634 17.6685C13.3073 18.1237 12.6892 18.3803 12.0447 18.3803H5.02465ZM3.64495 12.0802C3.23104 12.0802 2.89524 11.7437 2.89524 11.3301C2.89524 10.9158 3.23104 10.58 3.64495 10.58H11.2049C11.6189 10.58 11.9546 10.9158 11.9546 11.3301C11.9546 11.7437 11.6189 12.0802 11.2049 12.0802H3.64495ZM3.64495 5.36027C3.23104 5.36027 2.89524 5.0238 2.89524 4.61021C2.89524 4.19593 3.23104 3.86014 3.64495 3.86014H11.2049C11.6189 3.86014 11.9546 4.19593 11.9546 4.61021C11.9546 5.0238 11.6189 5.36027 11.2049 5.36027H3.64495ZM3.64495 15.4401C3.23104 15.4401 2.89524 15.1036 2.89524 14.69C2.89524 14.2758 3.23104 13.94 3.64495 13.94H11.2049C11.6189 13.94 11.9546 14.2758 11.9546 14.69C11.9546 15.1036 11.6189 15.4401 11.2049 15.4401H3.64495ZM3.64495 8.72022C3.23104 8.72022 2.89524 8.38375 2.89524 7.97016C2.89524 7.55588 3.23104 7.22009 3.64495 7.22009H11.2049C11.6189 7.22009 11.9546 7.55588 11.9546 7.97016C11.9546 8.38375 11.6189 8.72022 11.2049 8.72022H3.64495Z" fill="#b90075"/>
</svg>