<svg width="30" height="30" viewBox="0 0 30 30" fill="none" xmlns="http://www.w3.org/2000/svg">
<mask id="mask0_21_332" style="mask-type:luminance" maskUnits="userSpaceOnUse" x="0" y="0" width="30" height="30">
<path d="M0 -1.90735e-06H30V30H0V-1.90735e-06Z" fill="white"/>
</mask>
<g mask="url(#mask0_21_332)">
<path d="M20.3447 16.354C20.3448 15.6489 20.206 14.9506 19.9362 14.2992C19.6664 13.6477 19.271 13.0557 18.7724 12.5571C18.2738 12.0586 17.6818 11.6631 17.0303 11.3933C16.3789 11.1235 15.6806 10.9847 14.9755 10.9848C14.122 10.9847 13.2809 11.1885 12.522 11.5791C11.7632 11.9698 11.1087 12.5361 10.6129 13.2308C10.117 12.5362 9.46246 11.97 8.70365 11.5793C7.94484 11.1887 7.10372 10.9848 6.25025 10.9848C5.54513 10.9847 4.84689 11.1235 4.19542 11.3933C3.54395 11.6631 2.95201 12.0586 2.45342 12.5571C1.95482 13.0557 1.55933 13.6477 1.28954 14.2992C1.01975 14.9506 0.880939 15.6489 0.881043 16.354C0.881043 16.7732 0.933936 17.1821 1.02552 17.5737C1.77157 22.2056 6.92131 27.094 10.6129 28.4353C14.3037 27.094 19.455 22.2056 20.1979 17.5753C20.2945 17.1754 20.3438 16.7654 20.3447 16.354Z" fill="white"/>
<path d="M29.1197 5.28392C29.1198 4.79548 29.0237 4.3118 28.8368 3.86052C28.65 3.40924 28.376 2.99919 28.0306 2.65381C27.6852 2.30843 27.2752 2.03448 26.8239 1.84761C26.3726 1.66074 25.889 1.56461 25.4005 1.56471C24.8092 1.56475 24.2264 1.70605 23.7008 1.97685C23.1751 2.24765 22.7217 2.64011 22.3784 3.12155C22.0351 2.64027 21.5819 2.24791 21.0563 1.97712C20.5308 1.70633 19.9483 1.56494 19.3571 1.56471C18.8686 1.56461 18.385 1.66074 17.9337 1.84761C17.4824 2.03448 17.0724 2.30843 16.727 2.65381C16.3816 2.99919 16.1076 3.40924 15.9208 3.86052C15.7339 4.3118 15.6378 4.79548 15.6379 5.28392C15.6379 5.57524 15.675 5.85787 15.7381 6.12866C16.2545 9.33787 19.8221 12.7231 22.3784 13.6523C24.9347 12.7231 28.5031 9.33787 29.0195 6.12945C29.0826 5.85787 29.1197 5.57524 29.1197 5.28392Z" fill="white"/>
</g>
</svg>
