<svg width="42" height="42" viewBox="0 0 42 42" fill="none" xmlns="http://www.w3.org/2000/svg">
<path d="M32.0488 7.37508C31.5543 7.37508 31.071 7.5217 30.6599 7.79641C30.2487 8.07111 29.9283 8.46156 29.7391 8.91837C29.5499 9.37519 29.5004 9.87785 29.5968 10.3628C29.6933 10.8478 29.9314 11.2932 30.281 11.6428C30.6307 11.9925 31.0761 12.2306 31.5611 12.327C32.046 12.4235 32.5487 12.374 33.0055 12.1848C33.4623 11.9956 33.8528 11.6751 34.1275 11.264C34.4022 10.8529 34.5488 10.3695 34.5488 9.87508C34.5488 9.21204 34.2854 8.57616 33.8166 8.10731C33.3477 7.63847 32.7118 7.37508 32.0488 7.37508ZM41.6321 12.4167C41.5916 10.6882 41.2679 8.978 40.6738 7.35425C40.1441 5.96494 39.3196 4.70691 38.2571 3.66675C37.2255 2.59889 35.9645 1.77962 34.5696 1.27091C32.9502 0.65875 31.2381 0.327602 29.5071 0.291748C27.2988 0.166748 26.5905 0.166748 20.9238 0.166748C15.2571 0.166748 14.5488 0.166748 12.3405 0.291748C10.6095 0.327602 8.89742 0.65875 7.27795 1.27091C5.88561 1.78477 4.62573 2.60333 3.59045 3.66675C2.52259 4.69837 1.70332 5.95933 1.19462 7.35425C0.582456 8.97371 0.251308 10.6858 0.215454 12.4167C0.090454 14.6251 0.0904541 15.3334 0.0904541 21.0001C0.0904541 26.6667 0.090454 27.3751 0.215454 29.5834C0.251308 31.3143 0.582456 33.0264 1.19462 34.6459C1.70332 36.0408 2.52259 37.3018 3.59045 38.3334C4.62573 39.3968 5.88561 40.2154 7.27795 40.7292C8.89742 41.3414 10.6095 41.6726 12.3405 41.7084C14.5488 41.8334 15.2571 41.8334 20.9238 41.8334C26.5905 41.8334 27.2988 41.8334 29.5071 41.7084C31.2381 41.6726 32.9502 41.3414 34.5696 40.7292C35.9645 40.2205 37.2255 39.4013 38.2571 38.3334C39.3243 37.2971 40.1495 36.038 40.6738 34.6459C41.2679 33.0222 41.5916 31.312 41.6321 29.5834C41.6321 27.3751 41.7571 26.6667 41.7571 21.0001C41.7571 15.3334 41.7571 14.6251 41.6321 12.4167ZM37.8821 29.3334C37.867 30.6559 37.6274 31.9661 37.1738 33.2084C36.8411 34.1151 36.3069 34.9343 35.6113 35.6042C34.9356 36.2928 34.118 36.826 33.2155 37.1667C31.9732 37.6204 30.6629 37.8599 29.3405 37.8751C27.2571 37.9792 26.4863 38.0001 21.0071 38.0001C15.528 38.0001 14.7571 38.0001 12.6738 37.8751C11.3006 37.9008 9.93336 37.6894 8.63212 37.2501C7.76917 36.8919 6.98911 36.3601 6.34045 35.6876C5.64897 35.0183 5.12138 34.1984 4.79879 33.2917C4.29015 32.0316 4.00804 30.6916 3.96545 29.3334C3.96545 27.2501 3.84045 26.4792 3.84045 21.0001C3.84045 15.5209 3.84045 14.7501 3.96545 12.6667C3.97479 11.3148 4.2216 9.97497 4.69462 8.70841C5.06139 7.82906 5.62434 7.0452 6.34045 6.41675C6.9734 5.70043 7.75564 5.13153 8.63212 4.75008C9.90202 4.29184 11.2404 4.05233 12.5905 4.04175C14.6738 4.04175 15.4446 3.91675 20.9238 3.91675C26.403 3.91675 27.1738 3.91675 29.2571 4.04175C30.5796 4.05692 31.8898 4.29643 33.1321 4.75008C34.0788 5.10144 34.9286 5.67268 35.6113 6.41675C36.294 7.0567 36.8275 7.83911 37.1738 8.70841C37.6368 9.97703 37.8765 11.3163 37.8821 12.6667C37.9863 14.7501 38.0071 15.5209 38.0071 21.0001C38.0071 26.4792 37.9863 27.2501 37.8821 29.3334ZM20.9238 10.3126C18.8109 10.3167 16.7466 10.947 14.9918 12.1239C13.237 13.3007 11.8704 14.9713 11.0647 16.9246C10.259 18.8778 10.0503 21.0261 10.465 23.0979C10.8798 25.1696 11.8993 27.072 13.3948 28.5646C14.8903 30.0572 16.7946 31.073 18.8672 31.4837C20.9398 31.8944 23.0877 31.6816 25.0393 30.872C26.991 30.0625 28.6589 28.6927 29.8324 26.9356C31.0058 25.1785 31.6321 23.113 31.6321 21.0001C31.6349 19.594 31.3596 18.2013 30.8222 16.9021C30.2848 15.6028 29.4958 14.4226 28.5006 13.4294C27.5054 12.4361 26.3237 11.6494 25.0234 11.1145C23.723 10.5796 22.3298 10.3071 20.9238 10.3126ZM20.9238 27.9376C19.5517 27.9376 18.2104 27.5307 17.0695 26.7684C15.9287 26.0061 15.0395 24.9226 14.5144 23.6549C13.9893 22.3873 13.8519 20.9924 14.1196 19.6466C14.3873 18.3009 15.048 17.0648 16.0182 16.0945C16.9885 15.1243 18.2246 14.4636 19.5703 14.1959C20.9161 13.9282 22.311 14.0656 23.5787 14.5907C24.8463 15.1157 25.9298 16.0049 26.6921 17.1458C27.4544 18.2867 27.8613 19.628 27.8613 21.0001C27.8613 21.9111 27.6818 22.8133 27.3332 23.6549C26.9846 24.4966 26.4735 25.2614 25.8293 25.9056C25.1851 26.5498 24.4203 27.0609 23.5787 27.4095C22.737 27.7581 21.8348 27.9376 20.9238 27.9376Z" fill="url(#paint0_linear_67_170)"/>
<defs>
<linearGradient id="paint0_linear_67_170" x1="-9.65848" y1="-9.03868" x2="51.5487" y2="-4.43744" gradientUnits="userSpaceOnUse">
<stop stop-color="#B90075"/>
<stop offset="1" stop-color="#F01519"/>
</linearGradient>
</defs>
</svg>
