<svg width="300" height="300" viewBox="0 0 300 300" fill="none" xmlns="http://www.w3.org/2000/svg">
<rect width="300" height="300" fill="white"/>
<g clip-path="url(#clip0_28_2)">
<path d="M71.5557 62.5317C71.5557 62.5317 94.3802 16.593 158.568 65.6675C158.568 65.6675 203.663 29.0685 223.183 60.0513C227.155 66.3537 228.9 73.7917 228.494 81.2297C227.863 92.7944 223.755 113.151 205.349 134.717C205.349 134.717 167.122 181.511 131.746 163.823C131.746 163.823 102.362 148.414 133.171 93.9176C133.171 93.9176 138.879 100.192 144.583 110.465C144.583 110.465 128.608 143.565 144.297 151.267C144.297 151.267 163.697 158.687 189.66 125.304C189.66 125.304 215.62 92.4897 204.494 70.2343C204.494 70.2343 197.075 51.1178 161.986 84.7871C161.992 84.7748 115.491 20.2888 71.5557 62.5317Z" fill="url(#paint0_linear_28_2)"/>
<path d="M155.716 144.977C155.716 144.977 166.842 108.455 119.199 74.5059C119.199 74.5059 86.6757 50.5364 93.5249 93.9086C93.5249 93.9086 98.088 117.02 113.494 130.431C113.494 130.431 106.648 200.902 191.955 158.678C191.955 158.678 125.229 216.083 100.143 140.306C100.033 139.964 99.9187 139.62 99.808 139.275C99.808 139.275 74.8265 109.889 74.1219 83.461C73.6419 65.437 89.6511 51.3212 107.519 53.7153C127.322 56.368 158.78 70.6777 177.122 130.714C177.112 130.711 167.128 141.555 155.716 144.977Z" fill="url(#paint1_linear_28_2)"/>
<path d="M196.924 149.929C196.924 149.929 200.727 145.239 211.25 148.027C211.25 148.027 212.013 156.397 205.672 160.201C205.672 160.201 208.462 153.739 207.702 150.692C207.702 150.686 204.404 148.784 196.924 149.929Z" fill="#2492E7"/>
</g>
<path d="M33.5917 222.396C33.5917 223.836 32.8717 225.204 31.3597 225.204C30.4237 225.204 29.3437 224.988 28.7677 224.196C28.2637 223.548 28.1198 222.756 28.0478 221.964L26.1758 210.66L22.7918 221.892C22.2158 223.764 21.7838 225.204 19.5518 225.204C17.7519 225.204 16.9599 224.196 16.4559 222.54L12.6399 210.66L10.7679 222.54C10.4799 224.196 9.32794 225.204 7.59996 225.204C6.01598 225.204 5.22399 223.692 5.22399 222.252C5.22399 222.108 5.29599 221.82 5.29599 221.676L8.24796 203.605C8.39195 202.741 8.67995 201.949 9.32794 201.373C10.0479 200.797 10.9119 200.509 11.7759 200.509C13.3599 200.509 14.8719 201.229 15.3759 202.813L19.4078 215.196L23.1518 203.317C23.6558 201.805 24.9518 200.509 26.6798 200.509C28.4077 200.509 30.1357 201.589 30.4237 203.317L33.5917 221.604V222.396ZM53.6671 221.964C53.6671 223.62 52.6591 225.132 50.9311 225.132C49.6352 225.132 48.7712 224.124 48.4112 222.972C47.1152 224.484 45.9632 225.204 43.9472 225.204C42.0752 225.204 40.2032 224.412 38.7633 223.188C36.6033 221.244 35.6673 218.508 35.6673 215.7C35.6673 212.964 36.4593 210.588 38.4033 208.644C39.8433 207.204 41.7872 206.196 43.8752 206.196C45.8192 206.196 47.0432 206.916 48.4112 208.284C48.9152 207.204 49.7072 206.34 51.0031 206.34C52.5151 206.34 53.6671 207.564 53.6671 209.076V221.964ZM48.2672 215.844C48.2672 213.396 47.1872 211.164 44.4512 211.164C42.0752 211.164 40.9232 213.54 40.9232 215.628C40.9232 217.788 41.9312 220.236 44.4512 220.236C46.8992 220.236 48.2672 218.076 48.2672 215.844ZM69.2099 209.004C69.2099 210.516 67.986 211.38 66.546 211.38H65.034V222.108C65.034 223.764 64.098 225.132 62.37 225.132C60.714 225.132 59.706 223.692 59.706 222.108V211.38C58.8421 211.38 57.6901 211.38 57.0421 210.588C56.6821 210.156 56.4661 209.58 56.4661 209.004C56.4661 208.212 56.8981 207.276 57.6181 206.916C58.0501 206.7 58.6981 206.628 59.2021 206.628H59.706V203.317C59.706 201.733 60.642 200.365 62.37 200.365C64.098 200.365 65.034 201.733 65.034 203.317V206.628H66.546C67.986 206.628 69.2099 207.42 69.2099 209.004ZM83.7395 208.788C83.7395 210.516 82.3715 210.948 81.0035 211.38C80.0675 211.74 79.0595 212.1 78.1955 212.748C77.5475 213.252 77.4035 214.044 77.4035 214.908V222.108C77.4035 223.764 76.4675 225.132 74.7395 225.132C73.0836 225.132 72.0756 223.692 72.0756 222.108V209.364C72.0756 208.644 72.2196 207.852 72.7236 207.276C73.2276 206.7 73.9476 206.34 74.6675 206.34C75.9635 206.34 76.8275 207.06 77.4035 208.212C78.3395 207.276 79.4915 206.268 80.9315 206.268C82.4435 206.268 83.7395 207.348 83.7395 208.788ZM92.75 201.517C92.75 203.173 91.3821 204.612 89.7261 204.612C87.9981 204.612 86.6301 203.173 86.6301 201.517C86.6301 199.861 87.9981 198.421 89.7261 198.421C91.3821 198.421 92.75 199.861 92.75 201.517ZM92.318 222.108C92.318 223.764 91.3821 225.132 89.6541 225.132C87.9981 225.132 86.9901 223.692 86.9901 222.108V209.292C86.9901 207.708 87.9261 206.34 89.6541 206.34C91.3101 206.34 92.318 207.708 92.318 209.292V222.108ZM123.857 222.108C123.857 223.764 122.921 225.132 121.193 225.132C119.537 225.132 118.601 223.692 118.601 222.108V213.54C118.601 211.884 117.377 210.804 115.793 210.804C114.209 210.804 113.057 212.028 113.057 213.54V222.108C113.057 223.764 112.121 225.132 110.465 225.132C108.737 225.132 107.801 223.692 107.801 222.108V214.044C107.801 212.316 107.009 210.804 105.065 210.804C103.553 210.804 102.329 211.956 102.329 213.54V222.108C102.329 223.764 101.393 225.132 99.6651 225.132C98.0091 225.132 97.0011 223.692 97.0011 222.108V209.364C97.0011 207.924 97.8651 206.412 99.4491 206.34H99.5931C100.745 206.34 101.609 207.204 102.185 208.068C103.553 206.844 105.065 206.268 106.937 206.268C108.161 206.268 109.385 206.484 110.465 207.132C111.113 207.492 111.545 207.996 111.905 208.572C113.633 207.132 115.289 206.268 117.593 206.268C121.049 206.268 123.857 208.86 123.857 212.316V222.108ZM145.101 215.7C145.101 218.076 144.381 220.524 142.725 222.324C141.141 224.124 138.693 225.204 136.317 225.204C133.869 225.204 131.421 224.124 129.765 222.324C128.109 220.524 127.389 218.076 127.389 215.7C127.389 213.324 128.109 210.876 129.765 209.076C131.421 207.348 133.797 206.196 136.245 206.196C138.693 206.196 141.141 207.348 142.725 209.076C144.381 210.876 145.101 213.324 145.101 215.7ZM139.917 215.7C139.917 213.54 138.549 211.164 136.173 211.164C133.797 211.164 132.645 213.684 132.645 215.7C132.645 217.788 133.797 220.236 136.173 220.236C138.549 220.236 139.917 217.86 139.917 215.7ZM165.099 222.108C165.099 223.764 164.163 225.132 162.435 225.132C160.779 225.132 159.772 223.692 159.772 222.108V214.116C159.772 212.316 158.764 210.804 156.748 210.804C155.092 210.804 153.868 212.316 153.868 213.9V222.108C153.868 223.764 152.932 225.132 151.204 225.132C149.548 225.132 148.54 223.692 148.54 222.108V209.436C148.54 207.852 149.404 206.412 151.132 206.34H151.276C152.428 206.34 153.292 207.132 153.724 208.212C155.164 206.844 156.532 206.268 158.548 206.268C160.204 206.268 161.859 206.7 163.155 207.852C164.739 209.22 165.099 210.876 165.099 212.892V222.108ZM185.547 208.644C185.547 209.22 185.475 209.868 185.259 210.3L176.763 230.676C176.331 231.612 175.611 232.548 174.531 232.548C173.163 232.548 171.651 231.684 171.579 230.244C171.579 230.172 171.507 230.028 171.507 229.956C171.507 229.524 171.795 229.02 171.867 228.588L174.171 223.188L168.771 210.3C168.555 209.724 168.411 209.22 168.411 208.644C168.411 207.204 170.067 206.34 171.435 206.34C172.803 206.34 173.379 207.636 173.883 208.788L176.979 216.636L180.075 208.86C180.507 207.636 181.155 206.34 182.523 206.34C183.891 206.34 185.547 207.204 185.547 208.644ZM215.357 203.317C215.357 204.828 214.133 205.764 212.621 205.764H209.453V222.108C209.453 223.764 208.517 225.204 206.717 225.204C204.917 225.204 203.909 223.764 203.909 222.108V205.764H200.669C199.157 205.764 197.933 204.9 197.933 203.317C197.933 201.733 199.157 200.797 200.669 200.797H212.621C214.133 200.797 215.357 201.661 215.357 203.317ZM232.78 215.7C232.78 218.076 232.06 220.524 230.404 222.324C228.82 224.124 226.372 225.204 223.996 225.204C221.548 225.204 219.1 224.124 217.444 222.324C215.788 220.524 215.068 218.076 215.068 215.7C215.068 213.324 215.788 210.876 217.444 209.076C219.1 207.348 221.476 206.196 223.924 206.196C226.372 206.196 228.82 207.348 230.404 209.076C232.06 210.876 232.78 213.324 232.78 215.7ZM227.596 215.7C227.596 213.54 226.228 211.164 223.852 211.164C221.476 211.164 220.324 213.684 220.324 215.7C220.324 217.788 221.476 220.236 223.852 220.236C226.228 220.236 227.596 217.86 227.596 215.7ZM253.066 222.036C253.066 223.62 252.202 225.132 250.474 225.132C249.034 225.132 248.314 224.268 247.882 222.972C246.658 224.628 245.218 225.204 243.202 225.204C240.826 225.204 238.666 223.836 237.298 221.892C235.93 219.876 235.282 217.572 235.282 215.196C235.282 212.676 236.65 209.796 238.522 208.14C239.89 206.988 241.762 206.196 243.634 206.196C245.218 206.196 246.586 206.916 247.81 207.924V201.373C247.81 199.789 248.746 198.421 250.474 198.421C252.13 198.421 253.066 199.789 253.066 201.373V222.036ZM247.81 215.412C247.81 213.396 246.658 210.876 244.282 210.876C241.834 210.876 240.61 213.252 240.61 215.484C240.61 217.644 241.834 220.02 244.282 220.02C246.658 220.02 247.81 217.5 247.81 215.412ZM274.657 221.964C274.657 223.62 273.649 225.132 271.921 225.132C270.625 225.132 269.761 224.124 269.401 222.972C268.105 224.484 266.953 225.204 264.937 225.204C263.065 225.204 261.193 224.412 259.753 223.188C257.593 221.244 256.657 218.508 256.657 215.7C256.657 212.964 257.449 210.588 259.393 208.644C260.833 207.204 262.777 206.196 264.865 206.196C266.809 206.196 268.033 206.916 269.401 208.284C269.905 207.204 270.697 206.34 271.993 206.34C273.505 206.34 274.657 207.564 274.657 209.076V221.964ZM269.257 215.844C269.257 213.396 268.177 211.164 265.441 211.164C263.065 211.164 261.913 213.54 261.913 215.628C261.913 217.788 262.921 220.236 265.441 220.236C267.889 220.236 269.257 218.076 269.257 215.844ZM294.952 208.644C294.952 209.22 294.88 209.868 294.664 210.3L286.168 230.676C285.736 231.612 285.016 232.548 283.936 232.548C282.568 232.548 281.056 231.684 280.984 230.244C280.984 230.172 280.912 230.028 280.912 229.956C280.912 229.524 281.2 229.02 281.272 228.588L283.576 223.188L278.176 210.3C277.96 209.724 277.816 209.22 277.816 208.644C277.816 207.204 279.472 206.34 280.84 206.34C282.208 206.34 282.784 207.636 283.288 208.788L286.384 216.636L289.48 208.86C289.912 207.636 290.56 206.34 291.928 206.34C293.296 206.34 294.952 207.204 294.952 208.644Z" fill="#60096A"/>
<path d="M50.2168 253.1L50.3852 247.678C50.4245 246.477 50.5367 245.349 50.7219 244.294C50.3964 244.693 49.9867 245.288 49.4928 246.079C48.0168 248.453 46.4257 250.681 44.7195 252.763C44.5961 252.017 44.495 251.144 44.4165 250.145C44.3435 249.146 44.307 248.27 44.307 247.518C44.307 246.458 44.4052 245.613 44.6017 244.984C44.8037 244.35 45.1826 243.657 45.7382 242.905C44.6831 243.023 43.844 243.357 43.221 243.907C42.6037 244.457 42.295 245.021 42.295 245.599C42.295 245.812 42.3539 246.028 42.4718 246.247C42.6121 246.511 42.6823 246.688 42.6823 246.778C42.6823 246.924 42.6346 247.044 42.5391 247.14C42.4494 247.235 42.3371 247.283 42.2024 247.283C42.0228 247.283 41.8769 247.201 41.7646 247.039C41.6131 246.825 41.5373 246.55 41.5373 246.214C41.5373 245.703 41.6833 245.181 41.9751 244.648C42.2726 244.115 42.6654 243.677 43.1537 243.334C43.642 242.986 44.1976 242.734 44.8206 242.577C45.1629 242.493 45.7382 242.406 46.5464 242.316C46.8214 242.282 47.0936 242.246 47.3629 242.206C46.1451 243.913 45.5361 245.635 45.5361 247.375C45.5361 247.92 45.5782 249.006 45.6624 250.633C45.9935 250.235 46.2938 249.85 46.5632 249.48C46.7484 249.222 47.2311 248.506 48.0112 247.333C49.2683 245.425 50.2084 244.081 50.8314 243.301C51.2691 242.762 51.763 242.26 52.313 241.794C51.7742 243.91 51.5048 246.949 51.5048 250.911L53.6179 248.293C54.1847 247.586 54.7572 246.764 55.3353 245.826C55.9189 244.883 56.3034 244.131 56.4886 243.57C56.6064 243.205 56.6654 242.86 56.6654 242.535C56.6654 242.215 56.5924 241.878 56.4465 241.524C56.3567 241.3 56.3118 241.137 56.3118 241.036C56.3118 240.885 56.3651 240.758 56.4718 240.657C56.584 240.551 56.7243 240.497 56.8927 240.497C57.1059 240.497 57.2743 240.593 57.3978 240.784C57.5774 241.042 57.6672 241.384 57.6672 241.811C57.6672 242.378 57.4707 243.124 57.0779 244.05C56.6906 244.976 55.8263 246.329 54.485 248.108C52.7564 250.381 51.3337 252.045 50.2168 253.1ZM63.2739 250.574L63.4928 250.886C62.9764 251.458 62.4461 251.913 61.9017 252.25C61.5313 252.48 61.2254 252.595 60.9841 252.595C60.7876 252.595 60.6277 252.516 60.5042 252.359C60.3864 252.202 60.3274 251.958 60.3274 251.627C60.3274 251.402 60.3723 251.077 60.4621 250.65C60.5575 250.218 60.8213 249.295 61.2535 247.88C61.4443 247.184 61.5397 246.778 61.5397 246.66C61.5397 246.469 61.4443 246.374 61.2535 246.374C61.0177 246.374 60.7231 246.491 60.3695 246.727C59.8756 247.053 59.4379 247.468 59.0562 247.973C58.8149 248.299 58.6213 248.781 58.4754 249.421L57.8019 252.351H56.5475C56.8169 251.368 57.0246 250.566 57.1705 249.943L58.408 244.538C58.6325 243.545 58.9271 242.782 59.2919 242.248C59.6624 241.71 60.1422 241.28 60.7315 240.96C61.3264 240.641 61.9129 240.481 62.491 240.481C62.7323 240.481 62.9231 240.539 63.0634 240.657C63.2037 240.775 63.2739 240.924 63.2739 241.104C63.2739 241.255 63.2037 241.39 63.0634 241.508C62.9287 241.62 62.7435 241.676 62.5078 241.676C62.3731 241.676 62.1991 241.662 61.9859 241.634C61.5032 241.567 61.1693 241.533 60.9841 241.533C60.7259 241.533 60.5154 241.637 60.3527 241.844C60.1899 242.052 60.0215 242.54 59.8476 243.309L58.9047 247.468C59.5726 246.766 60.2994 246.174 61.0851 245.692C61.5453 245.405 61.9157 245.262 62.1963 245.262C62.4152 245.262 62.5864 245.33 62.7099 245.464C62.8333 245.593 62.8951 245.776 62.8951 246.012C62.8951 246.202 62.8726 246.393 62.8277 246.584C62.7548 246.915 62.5836 247.516 62.3142 248.386C61.9494 249.587 61.7333 250.333 61.666 250.625C61.6042 250.917 61.5734 251.178 61.5734 251.408C61.5734 251.498 61.5874 251.565 61.6155 251.61C61.6491 251.655 61.6968 251.677 61.7586 251.677C61.8933 251.677 62.1458 251.517 62.5162 251.197C62.7239 251.023 62.9764 250.816 63.2739 250.574ZM68.5186 250.246L68.7964 250.616C67.4214 251.924 66.2428 252.578 65.2607 252.578C64.8622 252.578 64.5563 252.443 64.343 252.174C64.1354 251.904 64.0316 251.472 64.0316 250.877C64.0316 249.676 64.3964 248.481 65.126 247.291C65.9454 245.939 66.9247 245.262 68.064 245.262C68.4625 245.262 68.7656 245.363 68.9732 245.565C69.1865 245.762 69.2931 246.034 69.2931 246.382C69.2931 246.747 69.1668 247.106 68.9143 247.459C68.6617 247.813 68.2099 248.181 67.5589 248.562C67.2334 248.748 66.5375 249.081 65.4711 249.564C65.4206 249.867 65.3954 250.156 65.3954 250.431C65.3954 250.83 65.4571 251.108 65.5806 251.265C65.7096 251.422 65.8948 251.5 66.1362 251.5C66.3663 251.5 66.6188 251.436 66.8938 251.307C67.2643 251.133 67.8058 250.779 68.5186 250.246ZM65.5721 249.025C66.4757 248.621 67.1548 248.186 67.6094 247.72C67.9181 247.395 68.0724 247.072 68.0724 246.752C68.0724 246.511 68.0079 246.32 67.8788 246.18C67.7553 246.034 67.5926 245.961 67.3905 245.961C67.1829 245.961 66.9808 246.04 66.7844 246.197C66.5206 246.404 66.2989 246.719 66.1193 247.14C65.8612 247.757 65.6788 248.386 65.5721 249.025ZM71.524 252.359H70.2697L70.859 250.094C71.1452 248.983 71.3949 247.928 71.6082 246.929C71.6587 246.682 71.684 246.528 71.684 246.466C71.684 246.331 71.6222 246.264 71.4988 246.264C71.4146 246.264 71.2855 246.323 71.1115 246.441C70.9375 246.553 70.6232 246.837 70.1686 247.291L69.9077 246.996C70.4464 246.418 70.9824 245.986 71.5156 245.7C72.0544 245.408 72.4669 245.262 72.7531 245.262C72.8541 245.262 72.9327 245.288 72.9888 245.338C73.0506 245.383 73.0814 245.442 73.0814 245.515C73.0814 245.588 73.045 245.781 72.972 246.096L72.61 247.603C73.1768 246.71 73.8166 245.947 74.5294 245.313C74.8718 245.01 75.158 244.858 75.3881 244.858C75.5565 244.858 75.6968 244.914 75.809 245.027C75.9213 245.133 75.9774 245.259 75.9774 245.405C75.9774 245.557 75.9213 245.686 75.809 245.793C75.7024 245.899 75.4302 246.026 74.9924 246.171C74.5771 246.312 74.2376 246.48 73.9738 246.677C73.7156 246.873 73.4294 247.173 73.1151 247.577C72.8064 247.981 72.5904 248.335 72.4669 248.638C72.3434 248.936 72.1554 249.631 71.9028 250.726L71.524 252.359ZM79.5468 250.246L79.8246 250.616C78.4496 251.924 77.271 252.578 76.2889 252.578C75.8904 252.578 75.5845 252.443 75.3713 252.174C75.1636 251.904 75.0598 251.472 75.0598 250.877C75.0598 249.676 75.4246 248.481 76.1542 247.291C76.9736 245.939 77.9529 245.262 79.0922 245.262C79.4907 245.262 79.7938 245.363 80.0014 245.565C80.2147 245.762 80.3213 246.034 80.3213 246.382C80.3213 246.747 80.1951 247.106 79.9425 247.459C79.69 247.813 79.2382 248.181 78.5871 248.562C78.2616 248.748 77.5657 249.081 76.4993 249.564C76.4488 249.867 76.4236 250.156 76.4236 250.431C76.4236 250.83 76.4853 251.108 76.6088 251.265C76.7379 251.422 76.9231 251.5 77.1644 251.5C77.3945 251.5 77.6471 251.436 77.9221 251.307C78.2925 251.133 78.8341 250.779 79.5468 250.246ZM76.6004 249.025C77.504 248.621 78.183 248.186 78.6376 247.72C78.9463 247.395 79.1007 247.072 79.1007 246.752C79.1007 246.511 79.0361 246.32 78.907 246.18C78.7836 246.034 78.6208 245.961 78.4188 245.961C78.2111 245.961 78.0091 246.04 77.8126 246.197C77.5488 246.404 77.3272 246.719 77.1476 247.14C76.8894 247.757 76.707 248.386 76.6004 249.025ZM84.7579 246.988L84.4885 246.592L85.1115 246.171C85.7176 245.756 86.1441 245.49 86.3911 245.372C86.5314 245.304 86.6605 245.271 86.7783 245.271C86.8962 245.271 87.0084 245.338 87.1151 245.473C87.6089 246.096 88.0243 246.938 88.361 247.998C88.6977 249.053 88.8661 250.078 88.8661 251.071C88.8661 251.2 88.8605 251.397 88.8493 251.66C89.7978 249.915 90.272 248.529 90.272 247.502C90.272 247.288 90.2243 247.005 90.1289 246.651C90.0279 246.258 89.9773 245.978 89.9773 245.809C89.9773 245.647 90.0279 245.512 90.1289 245.405C90.2355 245.299 90.3674 245.245 90.5245 245.245C90.721 245.245 90.8781 245.321 90.996 245.473C91.1195 245.624 91.1812 245.84 91.1812 246.121C91.1812 246.845 91.0156 247.749 90.6845 248.832C90.3534 249.909 89.8314 251.071 89.1187 252.317C88.4115 253.557 87.7633 254.478 87.174 255.078C86.5903 255.684 86.0235 256.117 85.4735 256.375C84.9291 256.638 84.4127 256.77 83.9245 256.77C83.554 256.77 83.2762 256.7 83.091 256.56C82.9002 256.425 82.8048 256.262 82.8048 256.072C82.8048 255.903 82.8778 255.757 83.0237 255.634C83.1696 255.516 83.366 255.457 83.613 255.457C83.8038 255.457 84.0648 255.494 84.3959 255.566C84.7495 255.645 84.9908 255.684 85.1199 255.684C85.4622 255.684 85.8242 255.541 86.2059 255.255C86.7278 254.862 87.1403 254.394 87.4434 253.849C87.7521 253.305 87.9064 252.755 87.9064 252.199C87.9064 251.419 87.7913 250.482 87.5612 249.387C87.3367 248.293 87.0168 247.457 86.6015 246.879C86.3939 246.581 86.1722 246.432 85.9365 246.432C85.6615 246.432 85.2686 246.618 84.7579 246.988ZM95.8619 245.279C96.4119 245.279 96.8693 245.498 97.2341 245.936C97.5989 246.374 97.7813 246.982 97.7813 247.763C97.7813 249.008 97.3435 250.128 96.468 251.122C95.5925 252.109 94.6664 252.603 93.6899 252.603C93.0894 252.603 92.6039 252.407 92.2335 252.014C91.8687 251.621 91.6863 251.085 91.6863 250.406C91.6863 249.227 92.023 248.139 92.6965 247.14C93.544 245.899 94.5991 245.279 95.8619 245.279ZM95.1463 245.91C94.6693 245.91 94.2062 246.253 93.7572 246.938C93.3139 247.617 93.0922 248.557 93.0922 249.758C93.0922 250.487 93.2297 251.063 93.5047 251.484C93.7067 251.792 93.9761 251.947 94.3129 251.947C94.7843 251.947 95.2136 251.655 95.6009 251.071C96.0948 250.313 96.3417 249.373 96.3417 248.251C96.3417 247.409 96.2267 246.808 95.9966 246.449C95.7721 246.09 95.4887 245.91 95.1463 245.91ZM104.28 245.506H105.476L104.684 248.444C104.219 250.151 103.986 251.122 103.986 251.357C103.986 251.464 104.011 251.545 104.061 251.601C104.112 251.658 104.168 251.686 104.23 251.686C104.325 251.686 104.438 251.643 104.567 251.559C104.752 251.43 105.103 251.105 105.619 250.583L105.897 250.894C104.769 252.067 103.938 252.654 103.405 252.654C103.225 252.654 103.071 252.584 102.942 252.443C102.818 252.309 102.757 252.115 102.757 251.862C102.757 251.571 102.818 251.18 102.942 250.692C102.442 251.265 101.825 251.767 101.09 252.199C100.601 252.485 100.178 252.628 99.8186 252.628C99.6221 252.628 99.4678 252.564 99.3555 252.435C99.2433 252.306 99.1872 252.101 99.1872 251.82C99.1872 251.601 99.2124 251.366 99.2629 251.113C99.3359 250.76 99.5211 250.05 99.8186 248.983C100.195 247.631 100.383 246.82 100.383 246.55C100.383 246.393 100.326 246.315 100.214 246.315C100.113 246.315 99.9757 246.368 99.8017 246.475C99.6277 246.576 99.3303 246.825 98.9094 247.224L98.539 246.929C99.291 246.256 99.8635 245.815 100.256 245.607C100.655 245.394 100.975 245.288 101.216 245.288C101.351 245.288 101.46 245.338 101.544 245.439C101.629 245.534 101.671 245.686 101.671 245.894C101.671 246.281 101.469 247.232 101.064 248.748C100.705 250.111 100.526 250.889 100.526 251.079C100.526 251.197 100.562 251.298 100.635 251.383C100.714 251.467 100.798 251.509 100.888 251.509C101.202 251.509 101.648 251.251 102.226 250.734C102.804 250.212 103.183 249.62 103.363 248.958L104.28 245.506ZM115.974 245.22L116.656 245.069C116.246 246.382 115.87 247.698 115.527 249.017C115.281 249.96 115.109 250.746 115.014 251.374C114.963 251.688 114.935 252.087 114.93 252.57C114.919 253.378 114.829 254.029 114.66 254.523C114.425 255.213 113.984 255.769 113.339 256.189C112.699 256.61 111.938 256.821 111.057 256.821C110.3 256.821 109.702 256.641 109.264 256.282C108.832 255.928 108.616 255.522 108.616 255.061C108.616 254.607 108.79 254.183 109.138 253.79C109.396 253.493 109.935 253.134 110.754 252.713C111.169 252.494 111.56 252.269 111.924 252.039C111.509 252.252 111.186 252.359 110.956 252.359C110.749 252.359 110.563 252.264 110.401 252.073C110.243 251.876 110.165 251.618 110.165 251.298C110.165 250.266 110.471 249.241 111.083 248.226C111.7 247.204 112.441 246.438 113.305 245.927C113.838 245.613 114.506 245.456 115.309 245.456C115.466 245.456 115.659 245.462 115.889 245.473L115.974 245.22ZM115.031 246.466C114.761 246.416 114.523 246.39 114.315 246.39C113.782 246.39 113.325 246.531 112.943 246.811C112.561 247.092 112.236 247.563 111.966 248.226C111.59 249.163 111.402 249.951 111.402 250.591C111.402 250.855 111.475 251.077 111.621 251.256C111.773 251.436 111.941 251.526 112.126 251.526C112.351 251.526 112.629 251.419 112.96 251.206C113.291 250.987 113.56 250.715 113.768 250.389C113.981 250.064 114.197 249.502 114.416 248.705L115.031 246.466ZM113.886 251.054C113.504 251.397 112.769 251.944 111.68 252.696C110.721 253.347 110.131 253.815 109.912 254.102C109.693 254.394 109.584 254.702 109.584 255.028C109.584 255.348 109.724 255.634 110.005 255.886C110.291 256.145 110.636 256.274 111.04 256.274C111.422 256.274 111.792 256.178 112.152 255.987C112.511 255.802 112.822 255.53 113.086 255.171C113.355 254.817 113.541 254.416 113.642 253.967C113.743 253.518 113.796 252.923 113.802 252.182C113.807 252.02 113.835 251.643 113.886 251.054ZM121.622 250.246L121.9 250.616C120.525 251.924 119.347 252.578 118.364 252.578C117.966 252.578 117.66 252.443 117.447 252.174C117.239 251.904 117.135 251.472 117.135 250.877C117.135 249.676 117.5 248.481 118.23 247.291C119.049 245.939 120.029 245.262 121.168 245.262C121.566 245.262 121.869 245.363 122.077 245.565C122.29 245.762 122.397 246.034 122.397 246.382C122.397 246.747 122.271 247.106 122.018 247.459C121.766 247.813 121.314 248.181 120.663 248.562C120.337 248.748 119.641 249.081 118.575 249.564C118.524 249.867 118.499 250.156 118.499 250.431C118.499 250.83 118.561 251.108 118.684 251.265C118.813 251.422 118.999 251.5 119.24 251.5C119.47 251.5 119.723 251.436 119.998 251.307C120.368 251.133 120.91 250.779 121.622 250.246ZM118.676 249.025C119.58 248.621 120.259 248.186 120.713 247.72C121.022 247.395 121.176 247.072 121.176 246.752C121.176 246.511 121.112 246.32 120.983 246.18C120.859 246.034 120.696 245.961 120.494 245.961C120.287 245.961 120.085 246.04 119.888 246.197C119.624 246.404 119.403 246.719 119.223 247.14C118.965 247.757 118.783 248.386 118.676 249.025ZM125.428 243.983L126.766 243.469L126.16 245.826H127.903L127.768 246.424H126.025L125.284 249.244C125.054 250.092 124.939 250.681 124.939 251.012C124.939 251.164 124.97 251.273 125.032 251.34C125.099 251.408 125.189 251.441 125.301 251.441C125.475 251.441 125.742 251.338 126.101 251.13C126.573 250.855 127.022 250.543 127.448 250.196L127.768 250.583C126.539 251.509 125.717 252.076 125.301 252.283C124.886 252.491 124.552 252.595 124.3 252.595C124.092 252.595 123.926 252.519 123.803 252.367C123.685 252.216 123.626 251.969 123.626 251.627C123.626 251.223 123.733 250.605 123.946 249.775L124.813 246.424H123.449L123.601 245.826H124.956L125.428 243.983ZM134.738 243.983L136.077 243.469L135.471 245.826H137.213L137.079 246.424H135.336L134.595 249.244C134.365 250.092 134.25 250.681 134.25 251.012C134.25 251.164 134.281 251.273 134.343 251.34C134.41 251.408 134.5 251.441 134.612 251.441C134.786 251.441 135.053 251.338 135.412 251.13C135.883 250.855 136.332 250.543 136.759 250.196L137.079 250.583C135.85 251.509 135.027 252.076 134.612 252.283C134.197 252.491 133.863 252.595 133.61 252.595C133.403 252.595 133.237 252.519 133.114 252.367C132.996 252.216 132.937 251.969 132.937 251.627C132.937 251.223 133.044 250.605 133.257 249.775L134.124 246.424H132.76L132.912 245.826H134.267L134.738 243.983ZM144.664 250.574L144.883 250.886C144.366 251.458 143.836 251.913 143.292 252.25C142.921 252.48 142.615 252.595 142.374 252.595C142.178 252.595 142.018 252.516 141.894 252.359C141.776 252.202 141.717 251.958 141.717 251.627C141.717 251.402 141.762 251.077 141.852 250.65C141.947 250.218 142.211 249.295 142.643 247.88C142.834 247.184 142.93 246.778 142.93 246.66C142.93 246.469 142.834 246.374 142.643 246.374C142.408 246.374 142.113 246.491 141.759 246.727C141.266 247.053 140.828 247.468 140.446 247.973C140.205 248.299 140.011 248.781 139.865 249.421L139.192 252.351H137.937C138.207 251.368 138.415 250.566 138.56 249.943L139.798 244.538C140.022 243.545 140.317 242.782 140.682 242.248C141.052 241.71 141.532 241.28 142.121 240.96C142.716 240.641 143.303 240.481 143.881 240.481C144.122 240.481 144.313 240.539 144.453 240.657C144.594 240.775 144.664 240.924 144.664 241.104C144.664 241.255 144.594 241.39 144.453 241.508C144.319 241.62 144.133 241.676 143.898 241.676C143.763 241.676 143.589 241.662 143.376 241.634C142.893 241.567 142.559 241.533 142.374 241.533C142.116 241.533 141.905 241.637 141.743 241.844C141.58 242.052 141.412 242.54 141.238 243.309L140.295 247.468C140.963 246.766 141.689 246.174 142.475 245.692C142.935 245.405 143.306 245.262 143.586 245.262C143.805 245.262 143.976 245.33 144.1 245.464C144.223 245.593 144.285 245.776 144.285 246.012C144.285 246.202 144.263 246.393 144.218 246.584C144.145 246.915 143.974 247.516 143.704 248.386C143.339 249.587 143.123 250.333 143.056 250.625C142.994 250.917 142.963 251.178 142.963 251.408C142.963 251.498 142.977 251.565 143.005 251.61C143.039 251.655 143.087 251.677 143.149 251.677C143.283 251.677 143.536 251.517 143.906 251.197C144.114 251.023 144.366 250.816 144.664 250.574ZM149.909 250.246L150.186 250.616C148.811 251.924 147.633 252.578 146.651 252.578C146.252 252.578 145.946 252.443 145.733 252.174C145.525 251.904 145.422 251.472 145.422 250.877C145.422 249.676 145.786 248.481 146.516 247.291C147.335 245.939 148.315 245.262 149.454 245.262C149.852 245.262 150.156 245.363 150.363 245.565C150.576 245.762 150.683 246.034 150.683 246.382C150.683 246.747 150.557 247.106 150.304 247.459C150.052 247.813 149.6 248.181 148.949 248.562C148.623 248.748 147.927 249.081 146.861 249.564C146.811 249.867 146.785 250.156 146.785 250.431C146.785 250.83 146.847 251.108 146.971 251.265C147.1 251.422 147.285 251.5 147.526 251.5C147.756 251.5 148.009 251.436 148.284 251.307C148.654 251.133 149.196 250.779 149.909 250.246ZM146.962 249.025C147.866 248.621 148.545 248.186 148.999 247.72C149.308 247.395 149.462 247.072 149.462 246.752C149.462 246.511 149.398 246.32 149.269 246.18C149.145 246.034 148.983 245.961 148.781 245.961C148.573 245.961 148.371 246.04 148.174 246.197C147.911 246.404 147.689 246.719 147.509 247.14C147.251 247.757 147.069 248.386 146.962 249.025ZM193.466 245.279C194.016 245.279 194.473 245.498 194.838 245.936C195.203 246.374 195.385 246.982 195.385 247.763C195.385 249.008 194.948 250.128 194.072 251.122C193.196 252.109 192.27 252.603 191.294 252.603C190.693 252.603 190.208 252.407 189.837 252.014C189.473 251.621 189.29 251.085 189.29 250.406C189.29 249.227 189.627 248.139 190.301 247.14C191.148 245.899 192.203 245.279 193.466 245.279ZM192.75 245.91C192.273 245.91 191.81 246.253 191.361 246.938C190.918 247.617 190.696 248.557 190.696 249.758C190.696 250.487 190.834 251.063 191.109 251.484C191.311 251.792 191.58 251.947 191.917 251.947C192.388 251.947 192.818 251.655 193.205 251.071C193.699 250.313 193.946 249.373 193.946 248.251C193.946 247.409 193.831 246.808 193.601 246.449C193.376 246.09 193.093 245.91 192.75 245.91ZM196.48 245.826H198.492C198.823 244.423 199.202 243.379 199.628 242.695C200.055 242.01 200.61 241.471 201.295 241.078C201.98 240.68 202.625 240.481 203.231 240.481C203.574 240.481 203.832 240.548 204.006 240.683C204.18 240.817 204.267 240.977 204.267 241.162C204.267 241.331 204.208 241.471 204.09 241.583C203.972 241.696 203.818 241.752 203.627 241.752C203.431 241.752 203.06 241.693 202.516 241.575C202.246 241.519 202.036 241.491 201.884 241.491C201.514 241.491 201.18 241.721 200.883 242.181C200.585 242.636 200.347 243.253 200.167 244.033L199.746 245.826H201.969L201.834 246.424H199.586L198.256 251.795C197.846 253.428 197.19 254.666 196.286 255.508C195.388 256.349 194.412 256.77 193.356 256.77C193.003 256.77 192.736 256.7 192.557 256.56C192.371 256.425 192.279 256.257 192.279 256.055C192.279 255.881 192.343 255.74 192.472 255.634C192.596 255.533 192.776 255.482 193.011 255.482C193.129 255.482 193.303 255.496 193.533 255.524C193.926 255.575 194.302 255.6 194.661 255.6C195.217 255.6 195.621 255.468 195.874 255.205C196.126 254.946 196.379 254.309 196.631 253.294L198.34 246.424H196.328L196.48 245.826ZM205.479 246.988L205.21 246.592L205.833 246.171C206.439 245.756 206.865 245.49 207.112 245.372C207.253 245.304 207.382 245.271 207.499 245.271C207.617 245.271 207.73 245.338 207.836 245.473C208.33 246.096 208.745 246.938 209.082 247.998C209.419 249.053 209.587 250.078 209.587 251.071C209.587 251.2 209.582 251.397 209.57 251.66C210.519 249.915 210.993 248.529 210.993 247.502C210.993 247.288 210.945 247.005 210.85 246.651C210.749 246.258 210.699 245.978 210.699 245.809C210.699 245.647 210.749 245.512 210.85 245.405C210.957 245.299 211.089 245.245 211.246 245.245C211.442 245.245 211.599 245.321 211.717 245.473C211.841 245.624 211.902 245.84 211.902 246.121C211.902 246.845 211.737 247.749 211.406 248.832C211.075 249.909 210.553 251.071 209.84 252.317C209.133 253.557 208.484 254.478 207.895 255.078C207.311 255.684 206.745 256.117 206.195 256.375C205.65 256.638 205.134 256.77 204.646 256.77C204.275 256.77 203.997 256.7 203.812 256.56C203.621 256.425 203.526 256.262 203.526 256.072C203.526 255.903 203.599 255.757 203.745 255.634C203.891 255.516 204.087 255.457 204.334 255.457C204.525 255.457 204.786 255.494 205.117 255.566C205.471 255.645 205.712 255.684 205.841 255.684C206.183 255.684 206.545 255.541 206.927 255.255C207.449 254.862 207.861 254.394 208.165 253.849C208.473 253.305 208.628 252.755 208.628 252.199C208.628 251.419 208.512 250.482 208.282 249.387C208.058 248.293 207.738 247.457 207.323 246.879C207.115 246.581 206.893 246.432 206.658 246.432C206.383 246.432 205.99 246.618 205.479 246.988ZM216.583 245.279C217.133 245.279 217.59 245.498 217.955 245.936C218.32 246.374 218.502 246.982 218.502 247.763C218.502 249.008 218.065 250.128 217.189 251.122C216.314 252.109 215.388 252.603 214.411 252.603C213.811 252.603 213.325 252.407 212.955 252.014C212.59 251.621 212.407 251.085 212.407 250.406C212.407 249.227 212.744 248.139 213.418 247.14C214.265 245.899 215.32 245.279 216.583 245.279ZM215.867 245.91C215.39 245.91 214.927 246.253 214.478 246.938C214.035 247.617 213.813 248.557 213.813 249.758C213.813 250.487 213.951 251.063 214.226 251.484C214.428 251.792 214.697 251.947 215.034 251.947C215.505 251.947 215.935 251.655 216.322 251.071C216.816 250.313 217.063 249.373 217.063 248.251C217.063 247.409 216.948 246.808 216.718 246.449C216.493 246.09 216.21 245.91 215.867 245.91ZM225.002 245.506H226.197L225.406 248.444C224.94 250.151 224.707 251.122 224.707 251.357C224.707 251.464 224.732 251.545 224.783 251.601C224.833 251.658 224.889 251.686 224.951 251.686C225.046 251.686 225.159 251.643 225.288 251.559C225.473 251.43 225.824 251.105 226.34 250.583L226.618 250.894C225.49 252.067 224.659 252.654 224.126 252.654C223.946 252.654 223.792 252.584 223.663 252.443C223.54 252.309 223.478 252.115 223.478 251.862C223.478 251.571 223.54 251.18 223.663 250.692C223.163 251.265 222.546 251.767 221.811 252.199C221.323 252.485 220.899 252.628 220.54 252.628C220.343 252.628 220.189 252.564 220.077 252.435C219.964 252.306 219.908 252.101 219.908 251.82C219.908 251.601 219.934 251.366 219.984 251.113C220.057 250.76 220.242 250.05 220.54 248.983C220.916 247.631 221.104 246.82 221.104 246.55C221.104 246.393 221.048 246.315 220.935 246.315C220.834 246.315 220.697 246.368 220.523 246.475C220.349 246.576 220.051 246.825 219.631 247.224L219.26 246.929C220.012 246.256 220.585 245.815 220.977 245.607C221.376 245.394 221.696 245.288 221.937 245.288C222.072 245.288 222.181 245.338 222.266 245.439C222.35 245.534 222.392 245.686 222.392 245.894C222.392 246.281 222.19 247.232 221.786 248.748C221.426 250.111 221.247 250.889 221.247 251.079C221.247 251.197 221.283 251.298 221.356 251.383C221.435 251.467 221.519 251.509 221.609 251.509C221.923 251.509 222.369 251.251 222.947 250.734C223.525 250.212 223.904 249.62 224.084 248.958L225.002 245.506ZM228.798 252.359H227.544L228.133 250.094C228.419 248.983 228.669 247.928 228.882 246.929C228.933 246.682 228.958 246.528 228.958 246.466C228.958 246.331 228.896 246.264 228.773 246.264C228.689 246.264 228.56 246.323 228.386 246.441C228.212 246.553 227.897 246.837 227.443 247.291L227.182 246.996C227.721 246.418 228.257 245.986 228.79 245.7C229.329 245.408 229.741 245.262 230.027 245.262C230.128 245.262 230.207 245.288 230.263 245.338C230.325 245.383 230.356 245.442 230.356 245.515C230.356 245.588 230.319 245.781 230.246 246.096L229.884 247.603C230.451 246.71 231.091 245.947 231.804 245.313C232.146 245.01 232.432 244.858 232.662 244.858C232.831 244.858 232.971 244.914 233.083 245.027C233.196 245.133 233.252 245.259 233.252 245.405C233.252 245.557 233.196 245.686 233.083 245.793C232.977 245.899 232.704 246.026 232.267 246.171C231.851 246.312 231.512 246.48 231.248 246.677C230.99 246.873 230.704 247.173 230.389 247.577C230.081 247.981 229.865 248.335 229.741 248.638C229.618 248.936 229.43 249.631 229.177 250.726L228.798 252.359Z" fill="#005495"/>
<path d="M154.505 252.502L154.606 252.048C155.195 251.935 155.588 251.806 155.785 251.66C155.987 251.514 156.166 251.256 156.323 250.886C156.486 250.51 156.705 249.738 156.98 248.571C157.345 247.027 157.676 245.916 157.973 245.237C158.428 244.216 158.992 243.458 159.666 242.964C160.345 242.47 161.029 242.223 161.72 242.223C162.163 242.223 162.536 242.335 162.839 242.56C163.142 242.784 163.294 243.017 163.294 243.259C163.294 243.393 163.246 243.508 163.151 243.604C163.061 243.699 162.952 243.747 162.823 243.747C162.654 243.747 162.449 243.637 162.208 243.419C161.939 243.183 161.728 243.029 161.577 242.956C161.431 242.883 161.288 242.846 161.147 242.846C160.985 242.846 160.825 242.891 160.667 242.981C160.449 243.104 160.213 243.34 159.96 243.688C159.713 244.03 159.455 244.541 159.186 245.22C159.012 245.68 158.79 246.438 158.521 247.493C158.1 249.171 157.78 250.285 157.561 250.835C157.404 251.228 157.213 251.554 156.989 251.812C157.791 251.632 158.431 251.542 158.908 251.542C159.205 251.542 159.48 251.562 159.733 251.601C159.986 251.635 160.426 251.725 161.055 251.871C161.599 252 161.981 252.064 162.2 252.064C162.413 252.064 162.592 252 162.738 251.871C162.89 251.736 162.966 251.585 162.966 251.416C162.966 251.31 162.926 251.161 162.848 250.97C162.775 250.79 162.738 250.647 162.738 250.541C162.738 250.389 162.783 250.271 162.873 250.187C162.963 250.097 163.081 250.052 163.227 250.052C163.395 250.052 163.538 250.128 163.656 250.28C163.774 250.426 163.833 250.628 163.833 250.886C163.833 251.374 163.631 251.795 163.227 252.149C162.823 252.502 162.275 252.679 161.585 252.679C161.243 252.679 160.802 252.654 160.263 252.603C158.445 252.44 157.255 252.359 156.694 252.359C155.869 252.359 155.139 252.407 154.505 252.502ZM169.322 245.279C169.872 245.279 170.329 245.498 170.694 245.936C171.059 246.374 171.241 246.982 171.241 247.763C171.241 249.008 170.803 250.128 169.928 251.122C169.052 252.109 168.126 252.603 167.15 252.603C166.549 252.603 166.064 252.407 165.693 252.014C165.328 251.621 165.146 251.085 165.146 250.406C165.146 249.227 165.483 248.139 166.156 247.14C167.004 245.899 168.059 245.279 169.322 245.279ZM168.606 245.91C168.129 245.91 167.666 246.253 167.217 246.938C166.774 247.617 166.552 248.557 166.552 249.758C166.552 250.487 166.689 251.063 166.964 251.484C167.166 251.792 167.436 251.947 167.773 251.947C168.244 251.947 168.673 251.655 169.061 251.071C169.555 250.313 169.801 249.373 169.801 248.251C169.801 247.409 169.686 246.808 169.456 246.449C169.232 246.09 168.948 245.91 168.606 245.91ZM175.93 246.079C175.498 246.769 175.198 247.378 175.029 247.906C174.867 248.433 174.785 248.958 174.785 249.48C174.785 249.963 174.892 250.717 175.105 251.745C176.345 250.802 177.224 249.92 177.74 249.101C178.256 248.276 178.515 247.566 178.515 246.971C178.515 246.797 178.45 246.578 178.321 246.315C178.181 246.034 178.111 245.826 178.111 245.692C178.111 245.546 178.161 245.419 178.262 245.313C178.363 245.201 178.484 245.144 178.624 245.144C178.809 245.144 178.958 245.226 179.07 245.389C179.182 245.546 179.239 245.815 179.239 246.197C179.239 247.392 178.815 248.557 177.967 249.69C176.929 251.082 175.613 252.154 174.019 252.906C173.98 252.642 173.901 252.222 173.783 251.643C173.553 250.482 173.438 249.674 173.438 249.219C173.438 248.618 173.579 248.038 173.859 247.476C174.14 246.909 174.555 246.418 175.105 246.003C174.117 246.02 173.41 246.129 172.984 246.331C172.681 246.477 172.529 246.649 172.529 246.845C172.529 246.924 172.568 247.055 172.647 247.241C172.697 247.37 172.723 247.479 172.723 247.569C172.723 247.659 172.683 247.74 172.605 247.813C172.532 247.88 172.439 247.914 172.327 247.914C172.181 247.914 172.058 247.852 171.957 247.729C171.856 247.605 171.805 247.44 171.805 247.232C171.805 246.901 171.915 246.604 172.133 246.34C172.352 246.07 172.731 245.86 173.27 245.708C173.809 245.557 174.521 245.487 175.408 245.498C175.767 245.341 175.995 245.262 176.09 245.262C176.18 245.262 176.261 245.299 176.334 245.372C176.407 245.445 176.444 245.523 176.444 245.607C176.444 245.781 176.272 245.939 175.93 246.079ZM184.054 250.246L184.332 250.616C182.957 251.924 181.778 252.578 180.796 252.578C180.398 252.578 180.092 252.443 179.878 252.174C179.671 251.904 179.567 251.472 179.567 250.877C179.567 249.676 179.932 248.481 180.661 247.291C181.481 245.939 182.46 245.262 183.599 245.262C183.998 245.262 184.301 245.363 184.509 245.565C184.722 245.762 184.828 246.034 184.828 246.382C184.828 246.747 184.702 247.106 184.45 247.459C184.197 247.813 183.745 248.181 183.094 248.562C182.769 248.748 182.073 249.081 181.006 249.564C180.956 249.867 180.931 250.156 180.931 250.431C180.931 250.83 180.992 251.108 181.116 251.265C181.245 251.422 181.43 251.5 181.672 251.5C181.902 251.5 182.154 251.436 182.429 251.307C182.8 251.133 183.341 250.779 184.054 250.246ZM181.108 249.025C182.011 248.621 182.69 248.186 183.145 247.72C183.453 247.395 183.608 247.072 183.608 246.752C183.608 246.511 183.543 246.32 183.414 246.18C183.291 246.034 183.128 245.961 182.926 245.961C182.718 245.961 182.516 246.04 182.32 246.197C182.056 246.404 181.834 246.719 181.655 247.14C181.397 247.757 181.214 248.386 181.108 249.025ZM235.558 252.502L235.659 252.048C236.249 251.935 236.641 251.806 236.838 251.66C237.04 251.514 237.22 251.256 237.377 250.886C237.539 250.51 237.758 249.738 238.033 248.571C238.398 247.027 238.729 245.916 239.027 245.237C239.481 244.216 240.045 243.458 240.719 242.964C241.398 242.47 242.083 242.223 242.773 242.223C243.216 242.223 243.59 242.335 243.893 242.56C244.196 242.784 244.347 243.017 244.347 243.259C244.347 243.393 244.3 243.508 244.204 243.604C244.114 243.699 244.005 243.747 243.876 243.747C243.707 243.747 243.503 243.637 243.261 243.419C242.992 243.183 242.781 243.029 242.63 242.956C242.484 242.883 242.341 242.846 242.201 242.846C242.038 242.846 241.878 242.891 241.721 242.981C241.502 243.104 241.266 243.34 241.014 243.688C240.767 244.03 240.508 244.541 240.239 245.22C240.065 245.68 239.843 246.438 239.574 247.493C239.153 249.171 238.833 250.285 238.614 250.835C238.457 251.228 238.266 251.554 238.042 251.812C238.844 251.632 239.484 251.542 239.961 251.542C240.259 251.542 240.534 251.562 240.786 251.601C241.039 251.635 241.479 251.725 242.108 251.871C242.652 252 243.034 252.064 243.253 252.064C243.466 252.064 243.646 252 243.792 251.871C243.943 251.736 244.019 251.585 244.019 251.416C244.019 251.31 243.98 251.161 243.901 250.97C243.828 250.79 243.792 250.647 243.792 250.541C243.792 250.389 243.837 250.271 243.926 250.187C244.016 250.097 244.134 250.052 244.28 250.052C244.448 250.052 244.591 250.128 244.709 250.28C244.827 250.426 244.886 250.628 244.886 250.886C244.886 251.374 244.684 251.795 244.28 252.149C243.876 252.502 243.329 252.679 242.638 252.679C242.296 252.679 241.855 252.654 241.317 252.603C239.498 252.44 238.308 252.359 237.747 252.359C236.922 252.359 236.193 252.407 235.558 252.502ZM249.786 241.659C249.96 241.659 250.103 241.718 250.215 241.836C250.327 241.948 250.383 242.094 250.383 242.274C250.383 242.521 250.296 242.74 250.122 242.93C249.954 243.116 249.763 243.208 249.55 243.208C249.381 243.208 249.241 243.149 249.129 243.031C249.017 242.914 248.961 242.759 248.961 242.568C248.961 242.316 249.042 242.103 249.205 241.929C249.367 241.749 249.561 241.659 249.786 241.659ZM246.469 247.232L246.098 246.946C246.659 246.329 247.17 245.891 247.63 245.633C248.096 245.369 248.492 245.237 248.817 245.237C248.997 245.237 249.135 245.276 249.23 245.355C249.325 245.433 249.373 245.54 249.373 245.675C249.373 245.838 249.191 246.528 248.826 247.746C248.231 249.738 247.933 250.939 247.933 251.349C247.933 251.427 247.953 251.495 247.992 251.551C248.032 251.601 248.074 251.627 248.119 251.627C248.298 251.627 248.759 251.279 249.499 250.583L249.828 250.903C249.059 251.627 248.498 252.09 248.144 252.292C247.79 252.494 247.501 252.595 247.277 252.595C247.08 252.595 246.923 252.533 246.805 252.41C246.693 252.286 246.637 252.115 246.637 251.896C246.637 251.194 247.058 249.48 247.9 246.752C247.939 246.623 247.959 246.508 247.959 246.407C247.959 246.295 247.908 246.239 247.807 246.239C247.695 246.239 247.566 246.284 247.42 246.374C247.28 246.463 246.963 246.75 246.469 247.232ZM250.627 245.826H252.639C252.971 244.423 253.349 243.379 253.776 242.695C254.202 242.01 254.758 241.471 255.443 241.078C256.127 240.68 256.773 240.481 257.379 240.481C257.721 240.481 257.98 240.548 258.154 240.683C258.328 240.817 258.415 240.977 258.415 241.162C258.415 241.331 258.356 241.471 258.238 241.583C258.12 241.696 257.966 241.752 257.775 241.752C257.578 241.752 257.208 241.693 256.663 241.575C256.394 241.519 256.184 241.491 256.032 241.491C255.662 241.491 255.328 241.721 255.03 242.181C254.733 242.636 254.494 243.253 254.315 244.033L253.894 245.826H256.116L255.982 246.424H253.734L252.404 251.795C251.994 253.428 251.337 254.666 250.434 255.508C249.536 256.349 248.559 256.77 247.504 256.77C247.151 256.77 246.884 256.7 246.704 256.56C246.519 256.425 246.427 256.257 246.427 256.055C246.427 255.881 246.491 255.74 246.62 255.634C246.744 255.533 246.923 255.482 247.159 255.482C247.277 255.482 247.451 255.496 247.681 255.524C248.074 255.575 248.45 255.6 248.809 255.6C249.365 255.6 249.769 255.468 250.021 255.205C250.274 254.946 250.526 254.309 250.779 253.294L252.488 246.424H250.476L250.627 245.826ZM260.275 250.246L260.553 250.616C259.178 251.924 257.999 252.578 257.017 252.578C256.619 252.578 256.313 252.443 256.099 252.174C255.892 251.904 255.788 251.472 255.788 250.877C255.788 249.676 256.153 248.481 256.882 247.291C257.702 245.939 258.681 245.262 259.82 245.262C260.219 245.262 260.522 245.363 260.73 245.565C260.943 245.762 261.05 246.034 261.05 246.382C261.05 246.747 260.923 247.106 260.671 247.459C260.418 247.813 259.966 248.181 259.315 248.562C258.99 248.748 258.294 249.081 257.228 249.564C257.177 249.867 257.152 250.156 257.152 250.431C257.152 250.83 257.213 251.108 257.337 251.265C257.466 251.422 257.651 251.5 257.893 251.5C258.123 251.5 258.375 251.436 258.65 251.307C259.021 251.133 259.562 250.779 260.275 250.246ZM257.329 249.025C258.232 248.621 258.911 248.186 259.366 247.72C259.674 247.395 259.829 247.072 259.829 246.752C259.829 246.511 259.764 246.32 259.635 246.18C259.512 246.034 259.349 245.961 259.147 245.961C258.939 245.961 258.737 246.04 258.541 246.197C258.277 246.404 258.055 246.719 257.876 247.14C257.618 247.757 257.435 248.386 257.329 249.025Z" fill="#D52B74"/>
<defs>
<linearGradient id="paint0_linear_28_2" x1="71.5557" y1="105.402" x2="228.558" y2="105.402" gradientUnits="userSpaceOnUse">
<stop offset="0.25" stop-color="#EE815A"/>
<stop offset="1" stop-color="#D52B74"/>
</linearGradient>
<linearGradient id="paint1_linear_28_2" x1="74.1034" y1="116.475" x2="191.946" y2="116.475" gradientUnits="userSpaceOnUse">
<stop offset="0.25" stop-color="#077DC3"/>
<stop offset="1" stop-color="#24A3DA"/>
</linearGradient>
<clipPath id="clip0_28_2">
<rect width="157.003" height="136.505" fill="white" transform="translate(71.5557 43)"/>
</clipPath>
</defs>
</svg>
