<svg width="26" height="26" viewBox="0 0 26 26" fill="none" xmlns="http://www.w3.org/2000/svg">
<path d="M18.6738 15.5C18.4238 15.375 16.7988 14.625 16.5488 14.5C16.2988 14.375 16.0488 14.375 15.7988 14.625C15.5488 14.875 15.0488 15.625 14.7988 15.875C14.6738 16.125 14.4238 16.125 14.1738 16C13.2988 15.625 12.4238 15.125 11.6738 14.5C11.0488 13.875 10.4238 13.125 9.92383 12.375C9.79883 12.125 9.92383 11.875 10.0488 11.75C10.1738 11.625 10.2988 11.375 10.5488 11.25C10.6738 11.125 10.7988 10.875 10.7988 10.75C10.9238 10.625 10.9238 10.375 10.7988 10.25C10.6738 10.125 10.0488 8.625 9.79883 8C9.67383 7.125 9.42383 7.125 9.17383 7.125H8.54883C8.29883 7.125 7.92383 7.375 7.79883 7.5C7.04883 8.25 6.67383 9.125 6.67383 10.125C6.79883 11.25 7.17383 12.375 7.92383 13.375C9.29883 15.375 11.0488 17 13.1738 18C13.7988 18.25 14.2988 18.5 14.9238 18.625C15.5488 18.875 16.1738 18.875 16.9238 18.75C17.7988 18.625 18.5488 18 19.0488 17.25C19.2988 16.75 19.2988 16.25 19.1738 15.75L18.6738 15.5ZM21.7988 4.125C16.9238 -0.75 9.04883 -0.75 4.17383 4.125C0.173828 8.125 -0.576172 14.25 2.17383 19.125L0.423828 25.5L7.04883 23.75C8.92383 24.75 10.9238 25.25 12.9238 25.25C19.7988 25.25 25.2988 19.75 25.2988 12.875C25.4238 9.625 24.0488 6.5 21.7988 4.125ZM18.4238 21.625C16.7988 22.625 14.9238 23.25 12.9238 23.25C11.0488 23.25 9.29883 22.75 7.67383 21.875L7.29883 21.625L3.42383 22.625L4.42383 18.875L4.17383 18.5C1.17383 13.5 2.67383 7.25 7.54883 4.125C12.4238 1 18.6738 2.625 21.6738 7.375C24.6738 12.25 23.2988 18.625 18.4238 21.625Z" fill="url(#paint0_linear_27_467)"/>
<defs>
<linearGradient id="paint0_linear_27_467" x1="-5.39812" y1="-5.06141" x2="31.1565" y2="-2.32971" gradientUnits="userSpaceOnUse">
<stop stop-color="#B90075"/>
<stop offset="1" stop-color="#F01519"/>
</linearGradient>
</defs>
</svg>
